<?xml version="1.0" encoding="UTF-8"?>
<svg xmlns="http://www.w3.org/2000/svg" id="Layer_1" data-name="Layer 1" viewBox="0 0 24 24">
  <path d="m16.5,2.5c0-1.381,1.119-2.5,2.5-2.5s2.5,1.119,2.5,2.5-1.119,2.5-2.5,2.5-2.5-1.119-2.5-2.5Zm7.477,14.128l-.876-7.008c-.258-2.063-2.021-3.62-4.101-3.62-.961,0-1.898.338-2.639.952-.425.353-.483.983-.131,1.408.354.426.983.484,1.408.131.382-.316.865-.491,1.361-.491,1.073,0,1.983.803,2.116,1.868l.876,7.008c.036.289-.05.567-.243.786-.192.218-.458.338-.75.338h-3c-.552,0-1,.447-1,1s.448,1,1,1h2v3c0,.553.448,1,1,1s1-.447,1-1v-3.189c.474-.169.909-.441,1.249-.826.569-.646.834-1.504.728-2.357ZM5,5c1.381,0,2.5-1.119,2.5-2.5S6.381,0,5,0s-2.5,1.119-2.5,2.5,1.119,2.5,2.5,2.5Zm2.333,1.228c-.428-.15-.877-.228-1.333-.228h-2C1.794,6,0,7.794,0,10v3c0,1.474.81,2.75,2,3.444v6.556c0,.553.448,1,1,1s1-.447,1-1v-6h1c.552,0,1-.447,1-1s-.448-1-1-1h-1c-1.103,0-2-.897-2-2v-3c0-1.103.897-2,2-2h2c.229,0,.453.038.667.114.522.181,1.092-.091,1.276-.61.184-.521-.089-1.092-.61-1.276Zm4.667,3.772c1.381,0,2.5-1.119,2.5-2.5s-1.119-2.5-2.5-2.5-2.5,1.119-2.5,2.5,1.119,2.5,2.5,2.5Zm4,4v3c0,.883-.391,1.67-1,2.22v3.78c0,.553-.448,1-1,1s-1-.447-1-1v-3h-2v3c0,.553-.448,1-1,1s-1-.447-1-1v-3.78c-.609-.549-1-1.337-1-2.22v-3c0-1.654,1.346-3,3-3h2c1.654,0,3,1.346,3,3Zm-3,4c.551,0,1-.448,1-1v-3c0-.552-.449-1-1-1h-2c-.551,0-1,.448-1,1v3c0,.552.449,1,1,1h2Z"/>
</svg>
