<?xml version="1.0" encoding="UTF-8"?>
<svg xmlns="http://www.w3.org/2000/svg" id="Layer_1" data-name="Layer 1" viewBox="0 0 24 24">
  <path d="m9.456,9.563c-.553-1.536-1.174-3.732-1.07-5.641.06-1.104.546-2.119,1.368-2.857C10.578.327,11.631-.048,12.744.013c1.104.06,2.119.546,2.857,1.369.738.823,1.112,1.884,1.053,2.989-.095,1.744-1.634,3.358-2.878,4.661-.532-.327-1.152-.525-1.82-.525-.979,0-1.863.407-2.499,1.057Zm.999,2.443c0,.827.673,1.5,1.5,1.5s1.5-.673,1.5-1.5-.673-1.5-1.5-1.5-1.5.673-1.5,1.5Zm12.441-2.245c-.738-.823-1.754-1.31-2.858-1.369-1.924-.104-4.141.528-5.678,1.083.671.638,1.095,1.534,1.095,2.53,0,.657-.193,1.265-.509,1.791,1.302,1.244,2.898,2.863,4.645,2.863,1.48,0,2.224-.365,2.989-1.052.822-.739,1.309-1.753,1.368-2.857.061-1.104-.313-2.166-1.052-2.989Zm-10.941,5.745c-.645,0-1.242-.188-1.762-.493-1.244,1.303-2.753,2.885-2.848,4.629-.123,2.28,1.628,4.358,3.909,4.358,1.263,0,2.224-.365,2.99-1.052.822-.738,1.309-1.753,1.368-2.857.106-1.939-.537-4.178-1.096-5.717-.64.692-1.547,1.133-2.562,1.133Zm-3.5-3.5c0-.668.198-1.287.524-1.819-1.303-1.244-2.872-2.741-4.616-2.835-1.112-.061-2.166.314-2.989,1.052C.552,9.144.066,10.158.006,11.262c-.061,1.104.313,2.166,1.052,2.989.738.823,1.897,1.38,3.288,1.38,1.806,0,3.794-.572,5.216-1.084-.678-.639-1.108-1.538-1.108-2.541Z"/>
</svg>
