<?xml version="1.0" encoding="UTF-8"?>
<svg xmlns="http://www.w3.org/2000/svg" id="Layer_1" data-name="Layer 1" viewBox="0 0 24 24">
  <path d="m16.785,2.474l1.235-2.01c.288-.472.904-.618,1.375-.328.471.289.618.904.328,1.375l-1.235,2.01c-.188.308-.517.477-.853.477-.179,0-.359-.048-.522-.148-.471-.289-.618-.904-.328-1.375Zm-11.358,1.046c.188.308.518.478.854.478.178,0,.358-.048.521-.147.471-.289.619-.904.33-1.375L5.899.465c-.289-.471-.905-.618-1.375-.33-.471.289-.619.904-.33,1.375l1.232,2.01Zm-2.186,2.208l-1.798-.861c-.496-.241-1.097-.029-1.333.47-.239.498-.028,1.095.47,1.333l1.798.861c.139.067.286.099.431.099.373,0,.731-.209.902-.568.239-.498.028-1.095-.47-1.333Zm8.623-1.727c-5.514.091-9.884,6.067-6.89,11.823.455.874,1.13,1.606,1.855,2.273.275.253.488.566.67.902h3.501v-5.184c-1.161-.414-2-1.514-2-2.816,0-.553.447-1,1-1s1,.447,1,1,.448,1,1,1,1-.448,1-1,.447-1,1-1,1,.447,1,1c0,1.302-.839,2.402-2,2.816v5.184h3.468c.228-.391.522-.76.907-1.081.659-.55,1.279-1.163,1.66-1.932,1.737-3.513,1.048-7.259-1.426-9.691-1.541-1.516-3.582-2.328-5.745-2.295Zm-3.872,17.277c-.08,1.466,1.018,2.722,2.486,2.722h3.021c1.381,0,2.5-1.119,2.5-2.5v-.5H7.981c0,.094.017.182.011.278Zm15.921-15.978c-.228-.503-.819-.73-1.322-.5l-1.932.872c-.504.227-.728.819-.5,1.322.167.37.53.589.912.589.137,0,.277-.028.41-.089l1.932-.872c.504-.227.728-.819.5-1.322Z"/>
</svg>
