<?xml version="1.0" encoding="UTF-8"?>
<svg xmlns="http://www.w3.org/2000/svg" id="Layer_1" data-name="Layer 1" viewBox="0 0 24 24">
  <g>
    <path d="M13.274,5.865l.831,.303c.328,.12,.586,.373,.707,.693l.307,.82c.146,.391,.519,.65,.936,.65h0c.417,0,.79-.258,.937-.649l.307-.818c.122-.322,.38-.576,.708-.695l.831-.303c.395-.144,.657-.52,.657-.939s-.263-.795-.657-.939l-.831-.303c-.328-.12-.586-.373-.707-.694l-.308-.82c-.146-.391-.52-.649-.937-.649h0c-.417,0-.79,.259-.936,.65l-.306,.817c-.122,.322-.38,.576-.708,.695l-.831,.303c-.395,.144-.657,.52-.657,.939s.263,.795,.657,.939Z"/>
    <path d="M22.386,12.004c-.402-.168-.87-.056-1.151,.279-.928,1.106-2.507,1.621-4.968,1.621-3.814,0-6.179-1.03-6.179-6.158,0-2.397,.532-4.019,1.626-4.957,.33-.284,.439-.749,.269-1.15-.17-.4-.571-.646-1.015-.604C5.285,1.572,1,6.277,1,11.977c0,6.062,4.944,10.994,11.022,10.994,5.72,0,10.438-4.278,10.973-9.951,.042-.436-.205-.848-.609-1.017Z"/>
  </g>
  <g>
    <circle cx="18.49" cy="11.05" r="1.5"/>
    <circle cx="13.99" cy="10.46" r="1.5"/>
  </g>
</svg>
