<?xml version="1.0" encoding="UTF-8"?>
<svg xmlns="http://www.w3.org/2000/svg" id="Layer_1" data-name="Layer 1" viewBox="0 0 24 24" width="512" height="512"><path d="M11,24H5c-2.757,0-5-2.243-5-5v-6c0-2.757,2.243-5,5-5h6c2.757,0,5,2.243,5,5v6c0,2.757-2.243,5-5,5ZM5,10c-1.654,0-3,1.346-3,3v6c0,1.654,1.346,3,3,3h6c1.654,0,3-1.346,3-3v-6c0-1.654-1.346-3-3-3H5Zm19,1C24,4.935,19.065,0,13,0c-.553,0-1,.448-1,1s.447,1,1,1c4.963,0,9,4.038,9,9,0,.552,.447,1,1,1s1-.448,1-1Zm-4,0c0-3.86-3.141-7-7-7-.553,0-1,.448-1,1s.447,1,1,1c2.757,0,5,2.243,5,5,0,.552,.447,1,1,1s1-.448,1-1Zm-15,1c-.552,0-1,.448-1,1s.448,1,1,1,1-.448,1-1-.448-1-1-1Z"/></svg>
