<?xml version="1.0" encoding="UTF-8"?>
<!-- Generator: Adobe Illustrator 26.0.1, SVG Export Plug-In . SVG Version: 6.00 Build 0)  -->
<svg xmlns="http://www.w3.org/2000/svg" xmlns:xlink="http://www.w3.org/1999/xlink" version="1.1" id="Capa_1" x="0px" y="0px" viewBox="0 0 24 24" style="enable-background:new 0 0 24 24;" xml:space="preserve" width="512" height="512">
<g>
	<g>
		<g>
			<path d="M12,0C5.373,0,0,5.373,0,12c0,6.628,5.373,12,12,12c6.628,0,12-5.372,12-12C24,5.373,18.628,0,12,0z M17.503,17.308     c-0.216,0.354-0.676,0.464-1.028,0.249c-2.818-1.722-6.365-2.111-10.542-1.157c-0.403,0.092-0.804-0.16-0.896-0.562     c-0.092-0.402,0.159-0.804,0.563-0.895c4.571-1.045,8.492-0.595,11.655,1.338C17.608,16.495,17.719,16.956,17.503,17.308z      M18.972,14.041c-0.271,0.44-0.847,0.578-1.287,0.308c-3.225-1.982-8.142-2.557-11.958-1.398C5.233,13.1,4.71,12.821,4.56,12.327     c-0.149-0.495,0.13-1.016,0.624-1.167c4.358-1.323,9.776-0.682,13.48,1.594C19.104,13.025,19.242,13.601,18.972,14.041z      M19.098,10.638C15.23,8.341,8.85,8.13,5.157,9.251c-0.593,0.18-1.22-0.155-1.4-0.748c-0.18-0.593,0.155-1.22,0.748-1.4     c4.239-1.287,11.285-1.038,15.738,1.605c0.533,0.317,0.708,1.005,0.392,1.538C20.32,10.779,19.63,10.955,19.098,10.638z"/>
		</g>
	</g>
</g>















</svg>
