<?xml version="1.0" encoding="UTF-8"?>
<svg xmlns="http://www.w3.org/2000/svg" id="Layer_1" data-name="Layer 1" viewBox="0 0 24 24">
  <path d="m19,6h-4.865l3.633-4.36c.354-.424.296-1.055-.128-1.408s-1.054-.296-1.408.128l-4.232,5.078L7.768.36c-.354-.424-.984-.482-1.408-.128-.424.354-.481.984-.128,1.408l3.633,4.36h-4.865c-2.757,0-5,2.243-5,5v8c0,2.757,2.243,5,5,5h14c2.757,0,5-2.243,5-5v-8c0-2.757-2.243-5-5-5Zm3,13c0,1.654-1.346,3-3,3H5c-1.654,0-3-1.346-3-3v-8c0-1.654,1.346-3,3-3h14c1.654,0,3,1.346,3,3v8Zm-9-9h-7c-1.103,0-2,.897-2,2v6c0,1.103.897,2,2,2h7c1.103,0,2-.897,2-2v-6c0-1.103-.897-2-2-2Zm-7,8v-6h7v6s-7,0-7,0Zm14-5.5c0,.828-.672,1.5-1.5,1.5s-1.5-.672-1.5-1.5.672-1.5,1.5-1.5,1.5.672,1.5,1.5Zm0,5c0,.828-.672,1.5-1.5,1.5s-1.5-.672-1.5-1.5.672-1.5,1.5-1.5,1.5.672,1.5,1.5Z"/>
</svg>
