<?xml version="1.0" encoding="UTF-8"?>
<svg id="Layer_1" data-name="Layer 1" xmlns="http://www.w3.org/2000/svg" width="1000" height="207.16" viewBox="0 0 1000 207.16">
  <defs>
    <style>
      .cls-1 {
        fill: #ffa08a;
        stroke-width: 0px;
      }
    </style>
  </defs>
  <path class="cls-1" d="m326.51,73.74c5.09-5.09,11.12-9.04,18.08-11.84,6.96-2.8,14.6-4.2,22.92-4.2,8.82,0,17.02,1.78,24.57,5.35,7.55,3.57,14.3,8.83,20.24,15.79l26.74-24.45c-8.49-10.35-19.01-18.2-31.57-23.55-12.57-5.35-26.57-8.02-42.02-8.02-13.75,0-26.53,2.25-38.32,6.75-11.8,4.5-22.07,10.91-30.81,19.23-8.75,8.32-15.53,18.08-20.37,29.28-4.84,11.2-7.26,23.51-7.26,36.92s2.42,25.72,7.26,36.92c4.84,11.21,11.59,20.97,20.24,29.29,8.66,8.32,18.88,14.73,30.68,19.22,11.8,4.49,24.57,6.75,38.32,6.75,15.62,0,29.7-2.72,42.27-8.15,12.56-5.43,23.08-13.33,31.57-23.68l-26.74-24.44c-5.94,6.96-12.69,12.26-20.24,15.91-7.56,3.65-15.75,5.47-24.57,5.47-8.32,0-15.96-1.4-22.92-4.2-6.96-2.8-12.99-6.75-18.08-11.84-5.09-5.1-9.04-11.12-11.84-18.08-2.8-6.96-4.2-14.68-4.2-23.17s1.4-16.21,4.2-23.17c2.8-6.96,6.75-12.99,11.84-18.08Z"/>
  <path class="cls-1" d="m522.06,25.87l-79.19,178.24h42.27l15.88-38.2h82.56l15.88,38.2h43.29l-79.96-178.24s-40.74,0-40.74,0Zm-8.01,108.73l28.26-67.95,28.26,67.95h-56.51Z"/>
  <path class="cls-1" d="m774.91,114.1c-6.11-3.65-12.82-6.66-20.12-9.04-7.3-2.38-14.69-4.37-22.15-5.98-7.47-1.61-14.26-3.23-20.37-4.84s-11.04-3.86-14.77-6.75c-3.74-2.88-5.6-6.7-5.6-11.46,0-3.73,1.15-7.13,3.44-10.18,2.29-3.06,5.89-5.47,10.82-7.26,4.92-1.78,11.46-2.68,19.61-2.68s15.96,1.15,24.44,3.44c8.49,2.29,16.72,5.73,24.7,10.31l12.99-31.07c-8.15-5.1-17.7-9-28.65-11.71-10.95-2.71-22.03-4.08-33.23-4.08-16.8,0-30.77,2.51-41.88,7.51-11.12,5.01-19.4,11.71-24.83,20.12-5.43,8.4-8.15,17.7-8.15,27.88,0,9.34,1.82,17.11,5.47,23.3,3.65,6.2,8.57,11.21,14.77,15.03,6.2,3.82,12.99,6.87,20.37,9.17s14.72,4.25,22.03,5.86c7.3,1.61,14.04,3.31,20.24,5.09,6.19,1.78,11.16,4.08,14.89,6.87,3.73,2.8,5.6,6.58,5.6,11.33,0,3.74-1.19,7-3.57,9.81-2.38,2.8-6.07,5.05-11.08,6.75-5.01,1.7-11.59,2.55-19.73,2.55-10.69,0-21.3-1.74-31.83-5.22-10.53-3.48-19.52-7.94-26.99-13.37l-14,31.07c7.98,6.11,18.54,11.07,31.7,14.89,13.15,3.82,26.86,5.73,41.12,5.73,16.81,0,30.81-2.55,42.02-7.64,11.2-5.1,19.56-11.8,25.08-20.12,5.52-8.32,8.28-17.48,8.28-27.5,0-9.17-1.91-16.84-5.73-23.04-3.82-6.2-8.79-11.12-14.9-14.77h0Z"/>
  <path class="cls-1" d="m920.04,25.87h-40.74l-79.19,178.24h42.27l15.88-38.2h82.56l15.88,38.2h43.29s-79.96-178.24-79.96-178.24Zm-48.75,108.73l28.26-67.95,28.26,67.95h-56.51Z"/>
  <path class="cls-1" d="m114.98,0L0,114.99l22.01,21.93v67.09h36.44v-30.65h113.08v30.65h36.44v-67.09l22.01-21.93L114.98,0Zm56.54,136.92H58.44v-28.85l56.54-56.54,56.54,56.54v28.85h0Z"/>
  <circle class="cls-1" cx="40.22" cy="18.22" r="18.22"/>
</svg>