<svg width="948" height="400" viewBox="0 0 948 400" fill="none" xmlns="http://www.w3.org/2000/svg">
<g clip-path="url(#clip0)">
<path opacity="0.6" fill-rule="evenodd" clip-rule="evenodd" d="M432.35 205.436C425.868 203.965 420.009 200.853 415.234 196.559C411.447 198.934 406.968 200.308 402.168 200.308C388.568 200.308 377.544 189.283 377.544 175.684C377.544 162.085 388.568 151.06 402.168 151.06C403.571 151.06 404.947 151.178 406.286 151.403C412.479 138.535 425.641 129.653 440.878 129.653C444.167 129.653 447.359 130.067 450.406 130.845C457.353 101.685 483.575 80 514.862 80C547.618 80 574.823 103.769 580.169 135.001C580.262 135 580.356 135 580.45 135C601.134 135 617.901 151.767 617.901 172.451C617.901 176.713 617.189 180.809 615.877 184.626C622.17 176.353 632.201 171 643.5 171C662.554 171 678 186.222 678 205C678 223.777 662.554 239 643.5 239C641.225 239 639.001 238.783 636.849 238.368C631.878 247.021 622.545 252.849 611.85 252.849C605.908 252.849 600.385 251.05 595.798 247.966C585.546 262.535 568.601 272.054 549.433 272.054C524.12 272.054 502.684 255.454 495.418 232.547C488.735 238.199 480.093 241.607 470.655 241.607C450.203 241.607 433.488 225.604 432.35 205.436ZM610.637 194.62C610.473 194.843 610.307 195.064 610.139 195.283C610.237 195.277 610.336 195.272 610.434 195.267C610.5 195.05 610.567 194.835 610.637 194.62Z" fill="url(#paint0_linear)"/>
<path fill-rule="evenodd" clip-rule="evenodd" d="M245.529 87.4893C224.303 87.4893 205.115 78.758 191.363 64.6909C184.656 67.8202 177.174 69.5679 169.284 69.5679C140.408 69.5679 117 46.1596 117 17.2839C117 -11.5917 140.408 -35 169.284 -35C174.494 -35 179.526 -34.2379 184.275 -32.8192C198.048 -51.7181 220.354 -64 245.529 -64C280.481 -64 309.903 -40.3269 318.637 -8.14006C323.052 -9.59077 327.768 -10.3755 332.669 -10.3755C350.712 -10.3755 366.27 0.264687 373.41 15.6128C376.582 14.4122 380.02 13.7551 383.612 13.7551C399.531 13.7551 412.436 26.6597 412.436 42.5783C412.436 58.4969 399.531 71.4015 383.612 71.4015C376.795 71.4015 370.53 69.0344 365.595 65.0773C357.393 73.9152 345.677 79.4456 332.669 79.4456C319.551 79.4456 307.747 73.8217 299.536 64.8535C285.795 78.8252 266.674 87.4893 245.529 87.4893Z" fill="url(#paint1_linear)"/>
<path opacity="0.8" fill-rule="evenodd" clip-rule="evenodd" d="M680.614 121.684C697.192 85.9519 733.387 61.1714 775.369 61.1714C823.544 61.1714 864.097 93.801 876.135 138.165C882.22 136.165 888.722 135.083 895.477 135.083C906.966 135.083 917.724 138.213 926.945 143.667C933.123 129.75 947.065 120.044 963.273 120.044C985.213 120.044 1003 137.83 1003 159.771C1003 181.712 985.213 199.499 963.273 199.499C961.258 199.499 959.278 199.349 957.344 199.059C956.25 232.285 928.97 258.885 895.477 258.885C880.143 258.885 866.111 253.309 855.298 244.074C839.136 264.767 813.952 278.07 785.661 278.07C774.343 278.07 763.523 275.941 753.578 272.062C742.366 283.341 726.836 290.324 709.676 290.324C681.28 290.324 657.35 271.205 650.058 245.137C645.905 246.404 641.497 247.085 636.929 247.085C612.116 247.085 592 226.97 592 202.156C592 179.751 608.4 161.176 629.851 157.781C629.413 155.599 629.182 153.341 629.182 151.029C629.182 132.205 644.443 116.945 663.267 116.945C669.602 116.945 675.533 118.673 680.614 121.684Z" fill="url(#paint2_linear)"/>
<path fill-rule="evenodd" clip-rule="evenodd" d="M655.521 57.2353C651.675 57.2353 647.976 56.6032 644.523 55.4372C637.594 71.6436 621.505 83 602.765 83C586.946 83 573.017 74.9089 564.891 62.6395C554.901 70.0371 542.537 74.4118 529.151 74.4118C510.078 74.4118 493.079 65.5295 482.066 51.6758C477.119 54.4357 471.42 56.0084 465.353 56.0084C446.38 56.0084 431 40.6281 431 21.6555C431 2.68285 446.38 -12.6975 465.353 -12.6975C468.622 -12.6975 471.784 -12.2409 474.78 -11.3879C484.411 -31.7432 505.137 -45.8235 529.151 -45.8235C539.072 -45.8235 548.432 -43.4204 556.68 -39.1645C566.999 -53.5947 583.896 -63 602.989 -63C632.686 -63 657.068 -40.2478 659.656 -11.2242C676.679 -9.18195 689.874 5.30928 689.874 22.8824C689.874 41.855 674.494 57.2353 655.521 57.2353Z" fill="url(#paint3_linear)"/>
<path fill-rule="evenodd" clip-rule="evenodd" d="M266.27 337.614C263.627 337.614 261.086 337.18 258.713 336.379C253.952 347.514 242.897 355.317 230.021 355.317C219.151 355.317 209.581 349.758 203.997 341.328C197.133 346.411 188.638 349.416 179.44 349.416C166.335 349.416 154.655 343.313 147.088 333.795C143.689 335.691 139.773 336.772 135.604 336.772C122.568 336.772 112 326.204 112 313.167C112 300.131 122.568 289.563 135.604 289.563C137.85 289.563 140.023 289.877 142.081 290.463C148.699 276.477 162.94 266.802 179.44 266.802C186.257 266.802 192.688 268.453 198.355 271.377C205.446 261.462 217.056 255 230.175 255C250.58 255 267.333 270.633 269.111 290.575C280.808 291.979 289.874 301.936 289.874 314.01C289.874 327.046 279.306 337.614 266.27 337.614Z" fill="url(#paint4_linear)"/>
<path fill-rule="evenodd" clip-rule="evenodd" d="M843.27 404.614C840.627 404.614 838.086 404.18 835.713 403.379C830.952 414.514 819.897 422.317 807.021 422.317C796.151 422.317 786.581 416.758 780.997 408.328C774.133 413.411 765.638 416.416 756.44 416.416C743.335 416.416 731.655 410.313 724.088 400.795C720.689 402.691 716.773 403.772 712.604 403.772C699.568 403.772 689 393.204 689 380.167C689 367.131 699.568 356.563 712.604 356.563C714.85 356.563 717.023 356.877 719.081 357.463C725.699 343.477 739.94 333.802 756.44 333.802C763.257 333.802 769.688 335.453 775.355 338.377C782.446 328.462 794.056 322 807.175 322C827.58 322 844.333 337.633 846.111 357.575C857.808 358.979 866.874 368.936 866.874 381.01C866.874 394.046 856.306 404.614 843.27 404.614Z" fill="url(#paint5_linear)"/>
<path fill-rule="evenodd" clip-rule="evenodd" d="M373.507 98.016C369.871 111.766 357.346 121.901 342.453 121.901C325.848 121.901 312.186 109.3 310.508 93.1391C309.244 93.3874 307.937 93.5175 306.6 93.5175C295.462 93.5175 286.433 84.4882 286.433 73.3501C286.433 62.2119 295.462 53.1827 306.6 53.1827C311.324 53.1827 315.668 54.8068 319.106 57.527C321.842 50.6079 328.596 45.7131 336.493 45.7131C337.825 45.7131 339.123 45.8521 340.376 46.1165C344.083 35.4347 354.039 27.7866 365.738 27.7866C380.6 27.7866 392.648 40.1286 392.648 55.3531C392.648 57.2385 392.464 59.0796 392.112 60.8586C399.166 62.009 404.533 67.8328 404.533 74.8441C404.533 82.6821 397.826 89.036 389.552 89.036C389.528 89.036 389.504 89.036 389.48 89.0359C389.5 89.2824 389.511 89.5315 389.511 89.7828C389.511 95.1457 384.829 99.4931 379.054 99.4931C377.016 99.4931 375.114 98.9519 373.507 98.016Z" fill="url(#paint6_linear)"/>
<path fill-rule="evenodd" clip-rule="evenodd" d="M22.5 131C32.469 131 40.8533 124.215 43.2871 115.011C44.3633 115.638 45.6361 116 47 116C50.866 116 54 113.09 54 109.5C54 109.332 53.9931 109.165 53.9796 109L54.0278 109C59.566 109 64.0556 104.747 64.0556 99.5C64.0556 94.8067 60.4631 90.9083 55.7411 90.1381C55.9767 88.9473 56.1004 87.7149 56.1004 86.4529C56.1004 76.2617 48.0355 68 38.0868 68C30.2552 68 23.5909 73.1197 21.1093 80.2701C20.2709 80.0931 19.4015 80 18.5104 80C13.2237 80 8.7029 83.2765 6.87112 87.9081C4.57025 86.0871 1.66209 85 -1.5 85C-7.18832 85 -12.0549 88.5181 -14.0427 93.4972C-14.9689 93.175 -15.964 93 -17 93C-21.9706 93 -26 97.0294 -26 102C-26 106.971 -21.9706 111 -17 111C-16.9376 111 -16.8753 110.999 -16.8132 110.998C-16.0847 113.866 -13.3107 116 -10 116C-7.02917 116 -4.4906 114.282 -3.47427 111.857C-2.82985 111.951 -2.17064 112 -1.5 112C-0.604994 112 0.269672 111.913 1.11598 111.747C2.23932 122.565 11.3846 131 22.5 131Z" fill="url(#paint7_linear)"/>
<path fill-rule="evenodd" clip-rule="evenodd" d="M911.178 45C897.629 45 885.948 52.9974 880.598 64.5292C878.958 63.5577 877.044 63 875 63C868.924 63 864 67.9249 864 74C864 74.746 864.074 75.4746 864.215 76.1789C857.292 77.2744 852 83.2691 852 90.5C852 98.5081 858.491 105 866.5 105C867.973 105 869.396 104.78 870.736 104.371C873.09 112.784 880.813 118.955 889.977 118.955C895.515 118.955 900.527 116.701 904.145 113.061C907.355 114.313 910.847 115 914.5 115C923.63 115 931.758 110.706 936.974 104.028C940.463 107.009 944.992 108.808 949.941 108.808C960.974 108.808 969.918 99.8639 969.918 88.8308C969.918 77.7976 960.974 68.8535 949.941 68.8535C947.761 68.8535 945.662 69.2027 943.698 69.8482C939.813 55.5305 926.726 45 911.178 45Z" fill="url(#paint8_linear)"/>
</g>
<defs>
<linearGradient id="paint0_linear" x1="482" y1="46" x2="578.404" y2="395.879" gradientUnits="userSpaceOnUse">
<stop stop-color="white" stop-opacity="0.3"/>
<stop offset="1" stop-color="white" stop-opacity="0"/>
</linearGradient>
<linearGradient id="paint1_linear" x1="257.053" y1="-39.8446" x2="264.768" y2="164.088" gradientUnits="userSpaceOnUse">
<stop stop-color="white" stop-opacity="0.3"/>
<stop offset="1" stop-color="white" stop-opacity="0"/>
</linearGradient>
<linearGradient id="paint2_linear" x1="782.562" y1="-16.1619" x2="549.148" y2="328.762" gradientUnits="userSpaceOnUse">
<stop stop-color="white" stop-opacity="0.3"/>
<stop offset="1" stop-color="white" stop-opacity="0"/>
</linearGradient>
<linearGradient id="paint3_linear" x1="594.334" y1="-44.8562" x2="588.539" y2="108.324" gradientUnits="userSpaceOnUse">
<stop stop-color="white" stop-opacity="0.3"/>
<stop offset="1" stop-color="white" stop-opacity="0"/>
</linearGradient>
<linearGradient id="paint4_linear" x1="224.227" y1="267.467" x2="220.246" y2="372.718" gradientUnits="userSpaceOnUse">
<stop stop-color="white" stop-opacity="0.2"/>
<stop offset="1" stop-color="white" stop-opacity="0"/>
</linearGradient>
<linearGradient id="paint5_linear" x1="801.227" y1="334.467" x2="797.246" y2="439.718" gradientUnits="userSpaceOnUse">
<stop stop-color="white" stop-opacity="0.2"/>
<stop offset="1" stop-color="white" stop-opacity="0"/>
</linearGradient>
<linearGradient id="paint6_linear" x1="469" y1="-111" x2="203.575" y2="-20.5837" gradientUnits="userSpaceOnUse">
<stop stop-color="white" stop-opacity="0.3"/>
<stop offset="1" stop-color="white" stop-opacity="0"/>
</linearGradient>
<linearGradient id="paint7_linear" x1="64" y1="-35" x2="-104.616" y2="71.5861" gradientUnits="userSpaceOnUse">
<stop stop-color="white" stop-opacity="0.3"/>
<stop offset="1" stop-color="white" stop-opacity="0"/>
</linearGradient>
<linearGradient id="paint8_linear" x1="906.673" y1="20.0422" x2="828.456" y2="122.796" gradientUnits="userSpaceOnUse">
<stop stop-color="white" stop-opacity="0.3"/>
<stop offset="1" stop-color="white" stop-opacity="0"/>
</linearGradient>
<clipPath id="clip0">
<path d="M0 16C0 7.16345 7.16344 0 16 0H932C940.837 0 948 7.16344 948 16V384C948 392.837 940.837 400 932 400H16C7.16346 400 0 392.837 0 384V16Z" fill="white"/>
</clipPath>
</defs>
</svg>