<svg width="948" height="400" viewBox="0 0 948 400" fill="none" xmlns="http://www.w3.org/2000/svg">
<g clip-path="url(#clip0)">
<path fill-rule="evenodd" clip-rule="evenodd" d="M945.847 206.43C950.924 200.162 953.965 192.177 953.965 183.483C953.965 163.334 937.631 147 917.483 147C905.125 147 894.202 153.144 887.603 162.545C885.551 162.187 883.44 162 881.286 162C866.845 162 854.363 170.391 848.451 182.563C844.994 181.546 841.336 181 837.55 181C824.189 181 812.415 187.797 805.499 198.123C801.953 195.684 797.657 194.256 793.028 194.256C780.862 194.256 771 204.118 771 216.284C771 228.45 780.862 238.313 793.028 238.313C796.503 238.313 799.789 237.508 802.712 236.076C808.9 249.097 822.174 258.1 837.55 258.1C847.085 258.1 855.811 254.638 862.541 248.903C867.585 253.098 874.069 255.621 881.142 255.621C888.263 255.621 894.786 253.064 899.844 248.819C903.79 252.548 909.114 254.834 914.972 254.834C915.563 254.834 916.148 254.811 916.728 254.765C919.392 255.568 922.217 256 925.142 256C932.263 256 938.786 253.443 943.844 249.198C947.79 252.927 953.114 255.213 958.972 255.213C971.138 255.213 981 245.351 981 233.185C981 221.019 971.138 211.156 958.972 211.156C956.014 211.156 953.193 211.739 950.617 212.796C949.321 210.457 947.712 208.317 945.847 206.43Z" fill="url(#paint0_linear)"/>
<path fill-rule="evenodd" clip-rule="evenodd" d="M636.537 301.313C633.162 300.547 630.111 298.926 627.625 296.69C625.653 297.927 623.321 298.642 620.821 298.642C613.74 298.642 608 292.902 608 285.821C608 278.74 613.74 273 620.821 273C621.552 273 622.268 273.061 622.966 273.178C626.19 266.478 633.044 261.854 640.977 261.854C642.69 261.854 644.352 262.069 645.938 262.474C649.556 247.291 663.209 236 679.5 236C698.554 236 714 251.446 714 270.5L714 270.533C717.385 267.703 721.743 266 726.5 266C732.022 266 737.008 268.295 740.555 271.984C743.989 265.934 750.489 261.854 757.941 261.854C768.974 261.854 777.918 270.798 777.918 281.831C777.918 289.221 773.905 295.675 767.939 299.13C767.106 310.243 757.826 319 746.5 319C745.266 319 744.055 318.896 742.878 318.696C740.257 323.071 735.471 326 730 326C726.906 326 724.03 325.063 721.642 323.457C716.304 331.043 707.481 336 697.5 336C684.32 336 673.159 327.357 669.375 315.429C665.896 318.372 661.396 320.146 656.482 320.146C645.832 320.146 637.129 311.814 636.537 301.313Z" fill="url(#paint1_linear)"/>
<path fill-rule="evenodd" clip-rule="evenodd" d="M-43.4634 311.313C-46.8385 310.547 -49.8889 308.926 -52.3753 306.69C-54.3471 307.927 -56.6794 308.642 -59.1788 308.642C-66.2597 308.642 -72 302.902 -72 295.821C-72 288.74 -66.2597 283 -59.1788 283C-58.448 283 -57.7316 283.061 -57.0342 283.178C-53.8096 276.478 -46.9562 271.854 -39.0227 271.854C-37.3102 271.854 -35.6479 272.069 -34.0616 272.474C-30.4443 257.291 -16.7907 246 -0.500015 246C18.5538 246 34 261.446 34 280.5L34 280.533C37.3845 277.703 41.7434 276 46.5 276C52.0219 276 57.0077 278.295 60.5555 281.984C63.9891 275.934 70.4885 271.854 77.9412 271.854C88.9743 271.854 97.9184 280.798 97.9184 291.831C97.9184 299.221 93.9052 305.675 87.9392 309.13C87.1061 320.243 77.8258 329 66.5 329C65.2655 329 64.0554 328.896 62.8777 328.696C60.2574 333.071 55.4707 336 50 336C46.9058 336 44.0304 335.063 41.642 333.457C36.3038 341.043 27.4808 346 17.5 346C4.32006 346 -6.84113 337.357 -10.6245 325.429C-14.1042 328.372 -18.604 330.146 -23.5183 330.146C-34.1676 330.146 -42.8708 321.814 -43.4634 311.313Z" fill="url(#paint2_linear)"/>
<path fill-rule="evenodd" clip-rule="evenodd" d="M655.521 77.2353C651.675 77.2353 647.976 76.6032 644.523 75.4372C637.594 91.6436 621.505 103 602.765 103C586.946 103 573.017 94.9089 564.891 82.6395C554.901 90.0371 542.537 94.4118 529.151 94.4118C510.078 94.4118 493.079 85.5295 482.066 71.6758C477.119 74.4357 471.42 76.0084 465.353 76.0084C446.38 76.0084 431 60.6281 431 41.6555C431 22.6829 446.38 7.30252 465.353 7.30252C468.622 7.30252 471.784 7.75913 474.78 8.61205C484.411 -11.7432 505.137 -25.8235 529.151 -25.8235C539.072 -25.8235 548.432 -23.4204 556.68 -19.1645C566.999 -33.5947 583.896 -43 602.989 -43C632.686 -43 657.068 -20.2478 659.656 8.77575C676.679 10.8181 689.874 25.3093 689.874 42.8824C689.874 61.855 674.494 77.2353 655.521 77.2353Z" fill="url(#paint3_linear)"/>
<path fill-rule="evenodd" clip-rule="evenodd" d="M75.0741 108.229C71.4383 121.979 58.9131 132.115 44.0206 132.115C27.4155 132.115 13.7535 119.514 12.0754 103.353C10.8111 103.601 9.50444 103.731 8.16741 103.731C-2.97074 103.731 -12 94.7016 -12 83.5634C-12 72.4253 -2.97074 63.396 8.16741 63.396C12.8912 63.396 17.2357 65.0201 20.673 67.7404C23.4094 60.8213 30.163 55.9264 38.0608 55.9264C39.392 55.9264 40.6908 56.0655 41.9433 56.3299C45.6506 45.6481 55.6063 38 67.3057 38C82.1678 38 94.2159 50.342 94.2159 65.5665C94.2159 67.4519 94.0311 69.293 93.6791 71.0719C100.733 72.2224 106.1 78.0462 106.1 85.0575C106.1 92.8955 99.3932 99.2494 91.1198 99.2494C91.0957 99.2494 91.0717 99.2493 91.0476 99.2492C91.0678 99.4958 91.0781 99.7449 91.0781 99.9962C91.0781 105.359 86.3963 109.706 80.6209 109.706C78.5834 109.706 76.6819 109.165 75.0741 108.229Z" fill="url(#paint4_linear)"/>
<path fill-rule="evenodd" clip-rule="evenodd" d="M694 97.5C694 103.937 692.995 110.135 691.136 115.941C698.197 108.01 708.484 103.014 719.938 103.014C726.3 103.014 732.302 104.555 737.591 107.284C744.208 98.031 755.043 92 767.286 92C787.435 92 803.769 108.334 803.769 128.483C803.769 128.563 803.769 128.644 803.768 128.724C806.123 128.109 808.594 127.782 811.142 127.782C827.219 127.782 840.251 140.814 840.251 156.891C840.251 172.967 827.219 186 811.142 186C808.217 186 805.392 185.568 802.728 184.765C802.148 184.811 801.563 184.834 800.972 184.834C795.114 184.834 789.79 182.548 785.844 178.819C780.786 183.064 774.263 185.621 767.142 185.621C758.388 185.621 750.536 181.756 745.199 175.64C743.979 174.96 742.8 174.216 741.666 173.412C735.48 177.641 727.998 180.114 719.938 180.114C707.708 180.114 696.808 174.418 689.746 165.535C688.181 166.408 686.498 167.096 684.728 167.568C682.952 169.08 680.603 170 678.028 170L677.98 170C677.993 170.165 678 170.332 678 170.5C678 174.09 674.866 177 671 177C669.636 177 668.363 176.638 667.287 176.011C664.853 185.215 656.469 192 646.5 192C635.385 192 626.239 183.565 625.116 172.747C624.27 172.913 623.395 173 622.5 173C622.204 173 621.91 172.99 621.619 172.972C621.183 173.139 620.733 173.28 620.271 173.392C619.125 175.531 616.747 177 614 177C612.815 177 611.699 176.727 610.721 176.244C605.906 187.907 594.422 196.115 581.021 196.115C564.415 196.115 550.753 183.514 549.075 167.353C547.811 167.601 546.504 167.731 545.167 167.731C534.029 167.731 525 158.702 525 147.563C525 136.425 534.029 127.396 545.167 127.396C549.891 127.396 554.236 129.02 557.673 131.74C560.409 124.821 567.163 119.926 575.061 119.926C577.444 119.926 579.723 120.372 581.818 121.184C578.719 113.927 577 105.917 577 97.5C577 64.6391 603.191 38 635.5 38C667.809 38 694 64.6391 694 97.5ZM611.443 151.752C611.287 151.975 611.138 152.202 610.995 152.434C610.852 152.062 610.702 151.695 610.545 151.33C610.843 151.473 611.142 151.614 611.443 151.752Z" fill="url(#paint5_linear)"/>
<path fill-rule="evenodd" clip-rule="evenodd" d="M449.594 137.056C444.47 141.662 438.185 145.002 431.23 146.58C430.009 168.218 412.076 185.388 390.132 185.388C380.006 185.388 370.734 181.732 363.565 175.667C355.769 200.245 332.771 218.055 305.613 218.055C285.047 218.055 266.867 207.841 255.867 192.21C250.946 195.519 245.021 197.449 238.645 197.449C227.372 197.449 217.509 191.414 212.11 182.399C209.683 182.811 207.19 183.025 204.646 183.025C197.814 183.025 191.344 181.479 185.565 178.717C184.146 179.143 182.642 179.372 181.085 179.372C179.503 179.372 177.977 179.136 176.539 178.697C174.014 187.723 165.728 194.343 155.896 194.343C149.328 194.343 143.45 191.389 139.518 186.737C137.451 187.104 135.322 187.296 133.149 187.296C113.185 187.296 97.0001 171.112 97.0001 151.147C97.0001 131.182 113.185 114.998 133.149 114.998C135.841 114.998 138.465 115.292 140.989 115.85C140.281 112.827 139.907 109.675 139.907 106.436C139.907 83.7021 158.337 65.2723 181.071 65.2723C196.428 65.2723 209.82 73.6812 216.895 86.1456C224.206 78.5455 234.479 73.8162 245.857 73.8162C255.659 73.8162 264.64 77.3256 271.614 83.1563L271.614 83.0888C271.614 43.8275 303.442 12 342.703 12C376.271 12 404.404 35.2658 411.858 66.5516C415.127 65.7164 418.552 65.2723 422.081 65.2723C438.428 65.2723 452.55 74.8016 459.194 88.6084C460.631 88.3665 462.107 88.2406 463.613 88.2406C478.203 88.2406 490.031 100.069 490.031 114.659C490.031 129.25 478.203 141.078 463.613 141.078C458.462 141.078 453.657 139.604 449.594 137.056Z" fill="url(#paint6_linear)"/>
<path d="M238.419 127.155L257.023 100L228 133.31L252.186 128.966L233.953 163L260 124.983L238.419 127.155Z" fill="url(#paint7_linear)"/>
<path d="M664.419 165.155L683.023 138L654 171.31L678.186 166.966L659.953 201L686 162.983L664.419 165.155Z" fill="url(#paint8_linear)"/>
<path d="M875.163 119.397L887.953 100L868 123.793L884.628 120.69L872.093 145L890 117.845L875.163 119.397Z" fill="url(#paint9_linear)"/>
<path d="M47.5116 129.241L59.1395 112L41 133.149L56.1163 130.391L44.7209 152L61 127.862L47.5116 129.241Z" fill="url(#paint10_linear)"/>
<path fill-rule="evenodd" clip-rule="evenodd" d="M547.806 85.436C541.324 83.9648 535.465 80.8524 530.69 76.5589C526.903 78.9344 522.424 80.3079 517.624 80.3079C504.024 80.3079 493 69.2835 493 55.6842C493 42.0848 504.024 31.0604 517.624 31.0604C519.027 31.0604 520.403 31.1778 521.742 31.4033C527.935 18.5346 541.097 9.65281 556.334 9.65281C559.623 9.65281 562.816 10.0667 565.862 10.8452C572.809 -18.3149 599.032 -40 630.319 -40C655.068 -40 676.648 -26.4305 688.025 -6.32551C695.374 -10.5707 703.903 -13 713 -13C726.952 -13 739.57 -7.28492 748.64 1.93197C757.481 -13.5499 774.258 -24 793.5 -24C821.942 -24 845 -1.16648 845 27C845 38.3463 841.258 48.8271 834.93 57.2986C845.164 60.2297 853.404 67.8786 857.146 77.7414C858.101 77.6239 859.074 77.5633 860.06 77.5633C862.306 77.5633 864.479 77.8771 866.537 78.4631C873.155 64.4767 887.396 54.8019 903.896 54.8019C910.713 54.8019 917.144 56.4531 922.812 59.3774C929.902 49.4623 941.512 43 954.631 43C975.036 43 991.789 58.6331 993.567 78.5754C1005.26 79.9787 1014.33 89.9357 1014.33 102.01C1014.33 115.046 1003.76 125.614 990.726 125.614C988.083 125.614 985.542 125.18 983.169 124.379C978.408 135.514 967.353 143.317 954.477 143.317C943.608 143.317 934.037 137.758 928.453 129.328C921.589 134.411 913.094 137.416 903.896 137.416C890.791 137.416 879.111 131.313 871.544 121.795C868.145 123.691 864.229 124.772 860.06 124.772C853.695 124.772 847.918 122.252 843.673 118.156C838.458 121.468 832.27 123.386 825.635 123.386C823.609 123.386 821.625 123.207 819.698 122.865C816.034 127.201 810.555 129.955 804.433 129.955C801.629 129.955 798.959 129.377 796.537 128.333C790.01 142.541 775.655 152.406 758.996 152.406C748.327 152.406 738.604 148.36 731.276 141.719C728.327 142.553 725.216 143 722 143C714.6 143 707.753 140.636 702.171 136.622C692.031 151.947 674.64 162.055 654.888 162.055C628.308 162.055 606.003 143.75 599.89 119.059C595.614 120.705 590.968 121.607 586.111 121.607C565.659 121.607 548.944 105.604 547.806 85.436Z" fill="url(#paint11_linear)"/>
</g>
<defs>
<linearGradient id="paint0_linear" x1="875.736" y1="173.635" x2="872.02" y2="271.859" gradientUnits="userSpaceOnUse">
<stop stop-color="white" stop-opacity="0.3"/>
<stop offset="1" stop-color="white" stop-opacity="0"/>
</linearGradient>
<linearGradient id="paint1_linear" x1="768" y1="91" x2="611.001" y2="338" gradientUnits="userSpaceOnUse">
<stop stop-color="white" stop-opacity="0.3"/>
<stop offset="1" stop-color="white" stop-opacity="0"/>
</linearGradient>
<linearGradient id="paint2_linear" x1="77.5" y1="79.5" x2="-68.9992" y2="348" gradientUnits="userSpaceOnUse">
<stop stop-color="white" stop-opacity="0.3"/>
<stop offset="1" stop-color="white" stop-opacity="0"/>
</linearGradient>
<linearGradient id="paint3_linear" x1="594.334" y1="-24.8562" x2="588.539" y2="128.324" gradientUnits="userSpaceOnUse">
<stop stop-color="white" stop-opacity="0.3"/>
<stop offset="1" stop-color="white" stop-opacity="0"/>
</linearGradient>
<linearGradient id="paint4_linear" x1="87.0117" y1="-29.2248" x2="-95.8393" y2="62.3067" gradientUnits="userSpaceOnUse">
<stop stop-color="white" stop-opacity="0.3"/>
<stop offset="1" stop-color="white" stop-opacity="0"/>
</linearGradient>
<linearGradient id="paint5_linear" x1="600" y1="366" x2="838.008" y2="37.8443" gradientUnits="userSpaceOnUse">
<stop stop-color="white" stop-opacity="0.3"/>
<stop offset="1" stop-color="white" stop-opacity="0"/>
</linearGradient>
<linearGradient id="paint6_linear" x1="345.692" y1="-72.2224" x2="453.568" y2="281.591" gradientUnits="userSpaceOnUse">
<stop stop-color="white" stop-opacity="0.3"/>
<stop offset="1" stop-color="white" stop-opacity="0"/>
</linearGradient>
<linearGradient id="paint7_linear" x1="241.023" y1="165.534" x2="259.062" y2="99.7428" gradientUnits="userSpaceOnUse">
<stop stop-color="#FFCD0D"/>
<stop offset="1" stop-color="#AE8F15"/>
</linearGradient>
<linearGradient id="paint8_linear" x1="667.023" y1="203.534" x2="685.062" y2="137.743" gradientUnits="userSpaceOnUse">
<stop stop-color="#FFCD0D"/>
<stop offset="1" stop-color="#AE8F15"/>
</linearGradient>
<linearGradient id="paint9_linear" x1="876.953" y1="146.81" x2="890.266" y2="100.076" gradientUnits="userSpaceOnUse">
<stop stop-color="#FFCD0D"/>
<stop offset="1" stop-color="#AE8F15"/>
</linearGradient>
<linearGradient id="paint10_linear" x1="49.1395" y1="153.609" x2="60.7484" y2="111.93" gradientUnits="userSpaceOnUse">
<stop stop-color="#FFCD0D"/>
<stop offset="1" stop-color="#AE8F15"/>
</linearGradient>
<linearGradient id="paint11_linear" x1="684.456" y1="-118.5" x2="610.625" y2="226.112" gradientUnits="userSpaceOnUse">
<stop stop-color="white" stop-opacity="0.3"/>
<stop offset="1" stop-color="white" stop-opacity="0"/>
</linearGradient>
<clipPath id="clip0">
<path d="M0 16C0 7.16345 7.16344 0 16 0H932C940.837 0 948 7.16344 948 16V384C948 392.837 940.837 400 932 400H16C7.16346 400 0 392.837 0 384V16Z" fill="white"/>
</clipPath>
</defs>
</svg>