<svg width="32" height="32" viewBox="0 0 32 32" fill="none" xmlns="http://www.w3.org/2000/svg">
<mask id="mask0_301_490" style="mask-type:alpha" maskUnits="userSpaceOnUse" x="1" y="1" width="30" height="22">
<path fill-rule="evenodd" clip-rule="evenodd" d="M1 12C1 17.799 5.70101 22.5 11.5 22.5H24.5C28.0899 22.5 31 19.5899 31 16C31 12.4101 28.0899 9.5 24.5 9.5C23.546 9.5 22.64 9.70552 21.8239 10.0747C20.9196 5.19523 16.6414 1.5 11.5 1.5C5.70101 1.5 1 6.20101 1 12Z" fill="url(#paint0_linear_301_490)"/>
</mask>
<g mask="url(#mask0_301_490)">
<path fill-rule="evenodd" clip-rule="evenodd" d="M1 12C1 17.799 5.70101 22.5 11.5 22.5H24.5C28.0899 22.5 31 19.5899 31 16C31 12.4101 28.0899 9.5 24.5 9.5C23.546 9.5 22.64 9.70552 21.8239 10.0747C20.9196 5.19523 16.6414 1.5 11.5 1.5C5.70101 1.5 1 6.20101 1 12Z" fill="url(#paint1_linear_301_490)"/>
<path d="M4 37.0001L14.3 16L36 32.5001L4 37.0001Z" fill="url(#paint2_linear_301_490)"/>
<path d="M22.5 22.7V18.5L31.5 22.7H22.5Z" fill="url(#paint3_linear_301_490)"/>
</g>
<path d="M14.3571 16H8.85714L6.5 24.6842H11.2143L9.64286 31L17.5 21.5263H12.7857L14.3571 16Z" fill="url(#paint4_linear_301_490)"/>
<path d="M20.0055 24.2426C20.007 25.8204 21.2068 26.9188 22.6855 26.9174C24.1642 26.9159 25.3619 25.8151 25.3603 24.2373C25.3588 22.6595 24.4659 22.2408 22.6773 18.5026C20.896 22.2442 20.004 22.6648 20.0055 24.2426Z" fill="url(#paint5_linear_301_490)"/>
<defs>
<linearGradient id="paint0_linear_301_490" x1="1" y1="0.66" x2="32.8504" y2="19.346" gradientUnits="userSpaceOnUse">
<stop stop-color="#EBEFF7"/>
<stop offset="1" stop-color="#DEE2F0"/>
</linearGradient>
<linearGradient id="paint1_linear_301_490" x1="1" y1="0.66" x2="32.8504" y2="19.346" gradientUnits="userSpaceOnUse">
<stop stop-color="#E6ECF7"/>
<stop offset="0.953125" stop-color="#D5DBED"/>
</linearGradient>
<linearGradient id="paint2_linear_301_490" x1="-0.799999" y1="13" x2="10.6598" y2="31.8163" gradientUnits="userSpaceOnUse">
<stop stop-color="#8D93A6"/>
<stop offset="0.395833" stop-color="#BCC4DB" stop-opacity="0.85"/>
<stop offset="0.828125" stop-color="#DEE2F0" stop-opacity="0.58"/>
<stop offset="1" stop-color="#EBEFF7" stop-opacity="0"/>
</linearGradient>
<linearGradient id="paint3_linear_301_490" x1="21.15" y1="17.9" x2="23.3679" y2="24.8949" gradientUnits="userSpaceOnUse">
<stop stop-color="#BCC9E3"/>
<stop offset="0.635417" stop-color="#C8D4ED" stop-opacity="0.68"/>
<stop offset="0.9999" stop-color="#C9D5EC" stop-opacity="0.1675"/>
<stop offset="1" stop-color="#CAD5ED" stop-opacity="0"/>
</linearGradient>
<linearGradient id="paint4_linear_301_490" x1="7.98077" y1="17.4423" x2="18.0919" y2="28.0028" gradientUnits="userSpaceOnUse">
<stop stop-color="#FFEE6D"/>
<stop offset="1" stop-color="#FFBF41"/>
</linearGradient>
<linearGradient id="paint5_linear_301_490" x1="22.6773" y1="18.5026" x2="22.6855" y2="26.9174" gradientUnits="userSpaceOnUse">
<stop stop-color="#57ABFF"/>
<stop offset="1" stop-color="#5EBFFF"/>
</linearGradient>
</defs>
</svg>