<svg width="32" height="32" viewBox="0 0 32 32" fill="none" xmlns="http://www.w3.org/2000/svg">
<mask id="mask0_301_311" style="mask-type:alpha" maskUnits="userSpaceOnUse" x="1" y="3" width="30" height="21">
<path fill-rule="evenodd" clip-rule="evenodd" d="M1 13.5C1 19.299 5.70101 24 11.5 24H24.5C28.0899 24 31 21.0899 31 17.5C31 13.9101 28.0899 11 24.5 11C23.546 11 22.64 11.2055 21.8239 11.5747C20.9196 6.69523 16.6414 3 11.5 3C5.70101 3 1 7.70101 1 13.5Z" fill="url(#paint0_linear_301_311)"/>
</mask>
<g mask="url(#mask0_301_311)">
<path fill-rule="evenodd" clip-rule="evenodd" d="M1 13.5C1 19.299 5.70101 24 11.5 24H24.5C28.0899 24 31 21.0899 31 17.5C31 13.9101 28.0899 11 24.5 11C23.546 11 22.64 11.2055 21.8239 11.5747C20.9196 6.69523 16.6414 3 11.5 3C5.70101 3 1 7.70101 1 13.5Z" fill="url(#paint1_linear_301_311)"/>
<path d="M11.5 24V18L22.5 24H11.5Z" fill="url(#paint2_linear_301_311)"/>
<path d="M21 24L20.8 19L27 24H21Z" fill="url(#paint3_linear_301_311)"/>
</g>
<path d="M15 25.5C15 27.5625 13.433 29 11.5 29C9.567 29 8 27.5625 8 25.5C8 23.4375 9.16667 22.8889 11.5 18C13.8333 22.8889 15 23.4375 15 25.5Z" fill="url(#paint4_linear_301_311)"/>
<path d="M24.0036 25.8182C24.0036 27.6932 22.5791 29 20.8218 29C19.0645 29 17.64 27.6932 17.64 25.8182C17.64 23.9431 18.7006 23.4444 20.8218 19C22.943 23.4444 24.0036 23.9431 24.0036 25.8182Z" fill="url(#paint5_linear_301_311)"/>
<defs>
<linearGradient id="paint0_linear_301_311" x1="1" y1="2.16" x2="32.8504" y2="20.846" gradientUnits="userSpaceOnUse">
<stop stop-color="#EBEFF7"/>
<stop offset="1" stop-color="#DEE2F0"/>
</linearGradient>
<linearGradient id="paint1_linear_301_311" x1="1" y1="2.16" x2="32.8504" y2="20.846" gradientUnits="userSpaceOnUse">
<stop stop-color="#E6ECF7"/>
<stop offset="0.953125" stop-color="#D5DBED"/>
</linearGradient>
<linearGradient id="paint2_linear_301_311" x1="9.85" y1="17.1429" x2="13.4335" y2="26.8122" gradientUnits="userSpaceOnUse">
<stop stop-color="#BCC9E3"/>
<stop offset="0.635417" stop-color="#C8D4ED" stop-opacity="0.68"/>
<stop offset="0.9999" stop-color="#C9D5EC" stop-opacity="0.1675"/>
<stop offset="1" stop-color="#CAD5ED" stop-opacity="0"/>
</linearGradient>
<linearGradient id="paint3_linear_301_311" x1="19.8701" y1="18.2857" x2="23.7321" y2="25.334" gradientUnits="userSpaceOnUse">
<stop stop-color="#BCC9E3"/>
<stop offset="0.635417" stop-color="#C8D4ED" stop-opacity="0.68"/>
<stop offset="0.9999" stop-color="#C9D5EC" stop-opacity="0.1675"/>
<stop offset="1" stop-color="#CAD5ED" stop-opacity="0"/>
</linearGradient>
<linearGradient id="paint4_linear_301_311" x1="11.5" y1="18" x2="11.5" y2="29" gradientUnits="userSpaceOnUse">
<stop stop-color="#57ABFF"/>
<stop offset="1" stop-color="#5EBFFF"/>
</linearGradient>
<linearGradient id="paint5_linear_301_311" x1="20.8218" y1="19" x2="20.8218" y2="29" gradientUnits="userSpaceOnUse">
<stop stop-color="#57ABFF"/>
<stop offset="1" stop-color="#5EBFFF"/>
</linearGradient>
</defs>
</svg>