<?xml version="1.0" encoding="UTF-8"?><svg id="Layer_1" xmlns="http://www.w3.org/2000/svg" viewBox="0 0 1000 207.1634"><defs><style>.cls-1{fill:#fff;stroke-width:0px;}</style></defs><path class="cls-1" d="m326.5079,73.7355c5.093-5.0906,11.1158-9.0378,18.0781-11.837,6.9598-2.8039,14.5981-4.2034,22.9172-4.2034,8.8243,0,17.0177,1.7838,24.573,5.3468,7.5505,3.5677,14.2992,8.8291,20.2414,15.7889l26.7363-24.4472c-8.4899-10.352-19.0127-18.2038-31.5731-23.5506-12.5652-5.3468-26.5703-8.0226-42.0153-8.0226-13.7489,0-26.5252,2.2535-38.3219,6.7464-11.799,4.5023-22.068,10.9118-30.8093,19.2285-8.7461,8.3167-15.5327,18.0757-20.3695,29.2816-4.8392,11.2012-7.2587,23.5126-7.2587,36.9199s2.4196,25.7187,7.2587,36.9199c4.8368,11.206,11.5855,20.9697,20.2414,29.2864,8.6583,8.3167,18.8822,14.7262,30.6836,19.2238,11.7966,4.4928,24.573,6.7464,38.3219,6.7464,15.6158,0,29.7039-2.7185,42.2691-8.1459,12.5605-5.4322,23.0833-13.3267,31.5731-23.6834l-26.7363-24.4425c-5.9422,6.9598-12.6909,12.2639-20.2414,15.9123-7.5553,3.6531-15.7486,5.4749-24.573,5.4749-8.3191,0-15.9574-1.3996-22.9172-4.1987-6.9622-2.8039-12.9851-6.7511-18.0781-11.8417-5.093-5.0953-9.0402-11.1158-11.8393-18.0804-2.8015-6.9598-4.2034-14.6788-4.2034-23.171,0-8.4875,1.4019-16.2064,4.2034-23.171,2.7991-6.9598,6.7464-12.9851,11.8393-18.0804Z"/><path class="cls-1" d="m522.0621,25.8658l-79.189,178.2423h42.2691l15.8838-38.1961h82.5592l15.8844,38.1961h43.2891l-79.9552-178.2423h-40.7414Zm-8.0131,108.7292l28.2569-67.9475,28.2557,67.9475h-56.5126Z"/><path class="cls-1" d="m774.9081,114.095c-6.1106-3.6483-12.819-6.661-20.1157-9.0378-7.3014-2.3769-14.6859-4.3695-22.1534-5.9825-7.4722-1.6131-14.2589-3.2261-20.3695-4.8392s-11.0375-3.8618-14.7689-6.7464c-3.7361-2.8845-5.603-6.7037-5.603-11.4622,0-3.729,1.1457-7.1259,3.4396-10.1812,2.2915-3.0553,5.8948-5.4749,10.8217-7.2587,4.9198-1.7838,11.4574-2.6758,19.6057-2.6758,7.8067,0,15.955,1.1481,24.4449,3.4396,8.4851,2.2915,16.7164,5.7311,24.6987,10.314l12.9851-31.0655c-8.1483-5.0953-17.6961-8.9951-28.6459-11.7136-10.9474-2.7137-22.0253-4.0753-33.2289-4.0753-16.8042,0-30.769,2.5097-41.8848,7.5102-11.1206,5.01-19.397,11.7136-24.8268,20.1205-5.4346,8.4021-8.1483,17.6961-8.1483,27.8773,0,9.3415,1.8218,17.1078,5.4749,23.2991,3.6483,6.2008,8.5682,11.206,14.7665,15.0251,6.196,3.8191,12.9874,6.8745,20.3719,9.1659s14.7238,4.2461,22.0253,5.8592c7.2967,1.6131,14.043,3.3068,20.2438,5.0906,6.1936,1.7838,11.1585,4.0753,14.8946,6.8745,3.7314,2.8039,5.603,6.5803,5.603,11.3293,0,3.7385-1.1908,7.0025-3.5653,9.8064-2.3793,2.7991-6.0727,5.0527-11.0779,6.7464-5.0076,1.6984-11.5855,2.5477-19.7338,2.5477-10.6936,0-21.3042-1.7411-31.827-5.2187-10.5275-3.4776-19.5227-7.9372-26.9925-13.3694l-14.0027,31.0655c7.9751,6.1106,18.543,11.0731,31.7012,14.8923,13.1535,3.8239,26.8621,5.7311,41.121,5.7311,16.8066,0,30.8117-2.5477,42.0153-7.6383,11.2036-5.0953,19.563-11.799,25.0806-20.1157,5.5152-8.3167,8.2764-17.4826,8.2764-27.5025,0-9.1659-1.9096-16.8422-5.7287-23.0429-3.8215-6.196-8.7864-11.1158-14.897-14.7689Z"/><path class="cls-1" d="m920.0448,25.8658h-40.7414l-79.189,178.2423h42.2691l15.8838-38.1961h82.5592l15.8844,38.1961h43.2891l-79.9552-178.2423Zm-48.7545,108.7292l28.2569-67.9475,28.2557,67.9475h-56.5126Z"/><path class="cls-1" d="m114.9827,0L0,114.9875l22.0069,21.931v67.0899h36.436v-30.6539h113.0821v30.6539h36.436v-67.0899l22.0063-21.9316L114.9827,0Zm56.5422,136.9185H58.4429v-28.8464l56.5399-56.5399,56.5422,56.5411v28.8452Z"/><circle class="cls-1" cx="40.2248" cy="18.218" r="18.218"/></svg>