<?xml version="1.0" encoding="UTF-8"?>
<svg xmlns="http://www.w3.org/2000/svg" id="Layer_1" data-name="Layer 1" viewBox="0 0 24 24" width="512" height="512"><path d="M23,8h-1.101c-.465-2.279-2.485-4-4.899-4H5C2.243,4,0,6.243,0,9v6c0,2.757,2.243,5,5,5h12c2.414,0,4.435-1.721,4.899-4h1.101c.552,0,1-.448,1-1v-6c0-.552-.448-1-1-1Zm-6,10H5c-1.654,0-3-1.346-3-3v-6c0-1.654,1.346-3,3-3h12c1.654,0,3,1.346,3,3v6c0,1.654-1.346,3-3,3Zm0-10H5c-.553,0-1,.448-1,1v6c0,.552,.447,1,1,1h12c.553,0,1-.448,1-1v-6c0-.552-.447-1-1-1Z"/></svg>
