<?xml version="1.0" encoding="UTF-8"?>
<svg xmlns="http://www.w3.org/2000/svg" id="Layer_1" data-name="Layer 1" viewBox="0 0 24 24" width="512" height="512"><path d="M22.903,6.538c-.676-.338-1.473-.267-2.077,.188-.039,.029-.076,.062-.11,.096l-1.757,1.773c-.211-2.565-2.341-4.594-4.959-4.594H5C2.243,4,0,6.243,0,9v6c0,2.757,2.243,5,5,5H14c2.629,0,4.768-2.047,4.962-4.627l1.756,1.754c.034,.033,.069,.063,.107,.092,.352,.264,.768,.398,1.188,.398,.303,0,.606-.069,.89-.211,.677-.338,1.097-1.019,1.097-1.774v-7.318c0-.757-.42-1.437-1.097-1.775Zm-8.903,11.462H5c-1.654,0-3-1.346-3-3v-6c0-1.654,1.346-3,3-3H14c1.654,0,3,1.346,3,3v6c0,1.654-1.346,3-3,3Zm5-5.417v-1.189l3-3.028,.025,7.238-3.025-3.022Z"/></svg>
