<?xml version="1.0" encoding="UTF-8"?>
<svg xmlns="http://www.w3.org/2000/svg" id="Layer_1" data-name="Layer 1" viewBox="0 0 24 24" width="512" height="512"><path d="m17,0H7C4.243,0,2,2.243,2,5v10c0,2.757,2.243,5,5,5h.033c-.246.249-.472.517-.674.806-.428.611-.478,1.37-.135,2.028.375.719,1.138,1.166,1.991,1.166h7.568c.854,0,1.617-.447,1.991-1.166.343-.659.293-1.417-.135-2.029-.202-.288-.428-.557-.674-.805h.033c2.757,0,5-2.243,5-5V5c0-2.757-2.243-5-5-5Zm-.998,21.908c-.007.018-.068.092-.218.092h-7.568c-.127,0-.191-.053-.211-.053-.001,0-.002,0-.003,0,.844-1.202,2.375-1.948,3.999-1.948s3.159.748,4.002,1.908Zm3.998-6.908c0,1.654-1.346,3-3,3H7c-1.654,0-3-1.346-3-3V5c0-1.654,1.346-3,3-3h10c1.654,0,3,1.346,3,3v10ZM12,5c-2.757,0-5,2.243-5,5s2.243,5,5,5,5-2.243,5-5-2.243-5-5-5Zm0,8c-1.654,0-3-1.346-3-3s1.346-3,3-3,3,1.346,3,3-1.346,3-3,3Z"/></svg>
