<?xml version="1.0" encoding="UTF-8"?>
<svg xmlns="http://www.w3.org/2000/svg" id="Layer_1" data-name="Layer 1" viewBox="0 0 24 24">
  <path d="m21.3,11.077l1.312-1.018c.263-.204.408-.526.385-.858s-.209-.632-.499-.798L8.797.51C7.857-.016,6.771-.142,5.734.158c-1.035.299-1.889.985-2.403,1.932l-.844,1.552c-1.034,1.9-.345,4.317,1.526,5.382l5.658,3.299-1.209,3.626c-.409,1.227-1.553,2.051-2.846,2.051h-3.617v-3c0-.552-.448-1-1-1s-1,.448-1,1v8c0,.552.448,1,1,1s1-.448,1-1v-3h3.617c2.155,0,4.062-1.374,4.743-3.418l1.077-3.229,2.878,1.678c.612.348,1.288.525,1.972.525.367,0,.737-.051,1.101-.154.357-.102.693-.249,1.001-.437l1.592.883c.591.328,1.336.111,1.66-.482l.844-1.547c.321-.588.107-1.324-.479-1.649l-1.137-.63c.118-.176.263-.33.431-.461Zm-4.46,2.4c-.521.148-1.066.082-1.527-.18L5.011,7.291c-.94-.535-1.284-1.744-.768-2.694l.844-1.552c.257-.474.684-.816,1.202-.966.186-.053.374-.08.561-.08.335,0,.665.084.959.25l12.4,7.143-.135.105c-.438.339-.794.758-1.06,1.245l-.966,1.77c-.259.475-.688.818-1.208.966Z"/>
</svg>
