<?xml version="1.0" encoding="UTF-8"?>
<svg id="Outline" xmlns="http://www.w3.org/2000/svg" version="1.1" viewBox="0 0 512 512">
  <!-- Generator: Adobe Illustrator 29.3.0, SVG Export Plug-In . SVG Version: 2.1.0 Build 146)  -->
  <path d="M277.3,64V21.3c0-11.8-9.6-21.3-21.3-21.3s-21.3,9.6-21.3,21.3v42.7c-82.4,0-149.2,66.9-149.3,149.3v128c0,94.3,76.4,170.7,170.7,170.7s170.7-76.4,170.7-170.7v-128c0-82.4-66.9-149.2-149.3-149.3ZM384,341.3c0,70.7-57.3,128-128,128s-128-57.3-128-128v-128c0-58.9,47.8-106.6,106.7-106.7h42.7c58.9,0,106.6,47.8,106.7,106.7v128Z"/>
  <path d="M256,149.3c-11.8,0-21.3,9.6-21.3,21.3v42.7c0,11.8,9.6,21.3,21.3,21.3s21.3-9.6,21.3-21.3v-42.7c0-11.8-9.6-21.3-21.3-21.3Z"/>
</svg>