<?xml version="1.0" encoding="UTF-8"?>
<svg xmlns="http://www.w3.org/2000/svg" id="Layer_1" data-name="Layer 1" viewBox="0 0 24 24">
  <path d="m22,9.172v-2.172c0-3.309-2.691-6-6-6h-8c-3.309,0-6,2.691-6,6v2.172c-1.164.413-2,1.524-2,2.828v4c0,1.632.786,3.084,2,3.997,0,0,0,.002,0,.003v2c0,.552.448,1,1,1s1-.448,1-1v-1.101c.323.066.658.101,1,.101h14c.342,0,.677-.035,1-.101v1.101c0,.552.448,1,1,1s1-.448,1-1v-2s0-.002,0-.003c1.214-.913,2-2.365,2-3.997v-4c0-1.304-.836-2.415-2-2.828ZM8,3h8c2.206,0,4,1.794,4,4v2.172c-1.164.413-2,1.524-2,2.828v2H6v-2c0-1.304-.836-2.415-2-2.828v-2.172c0-2.206,1.794-4,4-4Zm14,13c0,1.654-1.346,3-3,3H5c-1.654,0-3-1.346-3-3v-4c0-.551.449-1,1-1s1,.449,1,1v3c0,.552.448,1,1,1h14c.552,0,1-.448,1-1v-3c0-.551.449-1,1-1s1,.449,1,1v4Z"/>
</svg>
