<?xml version="1.0" encoding="UTF-8"?>
<svg xmlns="http://www.w3.org/2000/svg" id="Layer_1" data-name="Layer 1" viewBox="0 0 24 24">
  <path d="m22.941,9.755c-.738-.823-1.754-1.31-2.858-1.369-1.924-.104-4.141.528-5.678,1.083-.186-.177-.393-.328-.614-.46,1.244-1.303,2.769-2.901,2.863-4.645.06-1.104-.314-2.166-1.053-2.989C14.863.552,13.848.066,12.744.006c-1.112-.061-2.166.314-2.989,1.052-.822.739-1.309,1.753-1.368,2.857-.106,1.924.527,4.142,1.083,5.679-.177.186-.328.393-.461.614-1.303-1.244-2.902-2.769-4.645-2.863-1.112-.061-2.166.314-2.989,1.052C.553,9.137.066,10.152.007,11.256c-.061,1.104.313,2.166,1.052,2.989s1.792,1.38,3.288,1.38c1.818,0,3.824-.58,5.248-1.095.186.177.393.328.614.461-1.244,1.303-2.769,2.901-2.863,4.645-.06,1.104.314,2.166,1.053,2.989.738.823,1.754,1.31,2.858,1.369.075.004.15.006.226.006,2.181,0,4.012-1.713,4.131-3.916.106-1.924-.527-4.142-1.083-5.679.177-.186.328-.393.461-.614,1.303,1.244,2.902,2.769,4.646,2.863.075.004.15.006.226.006,2.181,0,4.012-1.713,4.131-3.916.061-1.104-.313-2.166-1.052-2.989Zm-18.917,3.861c-.57-.031-1.096-.282-1.478-.708-.381-.426-.574-.974-.543-1.545.03-.571.281-1.096.707-1.477.396-.355.753-.544,1.545-.544,1.007,0,2.197,1.192,3.249,2.196.343.328.695.656,1.046.961.013.087.019.175.038.26-1.335.46-3.092.932-4.564.856ZM11.091,2.547c.396-.355.898-.547,1.426-.547.697,0,1.215.286,1.597.711.381.425.574.974.543,1.545-.054,1.005-1.192,2.198-2.196,3.25-.327.343-.656.694-.961,1.045-.087.013-.175.019-.26.038-.461-1.335-.935-3.094-.855-4.565.03-.571.281-1.096.707-1.477Zm2.409,9.453c0,.827-.673,1.5-1.5,1.5s-1.5-.673-1.5-1.5.673-1.5,1.5-1.5,1.5.673,1.5,1.5Zm-.591,9.453c-.426.382-.981.572-1.545.544-.57-.031-1.096-.282-1.478-.708-.381-.425-.574-.974-.543-1.545.054-1.005,1.192-2.198,2.196-3.25.327-.343.656-.694.961-1.045.087-.013.175-.019.26-.038.461,1.335.935,3.094.855,4.565-.03.571-.281,1.095-.707,1.477Zm6.835-6.796c-1.006-.054-2.197-1.192-3.249-2.196-.343-.328-.695-.656-1.046-.961-.013-.087-.019-.175-.038-.26,1.335-.461,3.088-.936,4.564-.856.57.031,1.096.282,1.478.708.381.426.574.974.543,1.545-.063,1.179-1.086,2.079-2.252,2.021Z"/>
</svg>
