<?xml version="1.0" encoding="UTF-8"?>
<svg xmlns="http://www.w3.org/2000/svg" id="Layer_1" data-name="Layer 1" viewBox="0 0 24 24">
  <path d="m8,22.5c0,.828-.672,1.5-1.5,1.5h-1c-3.032,0-5.5-2.468-5.5-5.5v-1c0-.828.672-1.5,1.5-1.5s1.5.672,1.5,1.5v1c0,1.379,1.121,2.5,2.5,2.5h1c.828,0,1.5.672,1.5,1.5Zm14.5-6.5c-.828,0-1.5.672-1.5,1.5v1c0,1.379-1.121,2.5-2.5,2.5h-1c-.828,0-1.5.672-1.5,1.5s.672,1.5,1.5,1.5h1c3.032,0,5.5-2.468,5.5-5.5v-1c0-.828-.672-1.5-1.5-1.5ZM18.5,0h-1c-.828,0-1.5.672-1.5,1.5s.672,1.5,1.5,1.5h1c1.379,0,2.5,1.121,2.5,2.5v1c0,.828.672,1.5,1.5,1.5s1.5-.672,1.5-1.5v-1c0-3.032-2.468-5.5-5.5-5.5ZM1.5,8c.828,0,1.5-.672,1.5-1.5v-1c0-1.379,1.121-2.5,2.5-2.5h1c.828,0,1.5-.672,1.5-1.5s-.672-1.5-1.5-1.5h-1C2.468,0,0,2.468,0,5.5v1c0,.828.672,1.5,1.5,1.5Zm10.5,10c-3.309,0-6-2.691-6-6s2.691-6,6-6,6,2.691,6,6-2.691,6-6,6Zm3-6c0-1.654-1.346-3-3-3s-3,1.346-3,3,1.346,3,3,3,3-1.346,3-3Z"/>
</svg>
