<?xml version="1.0" encoding="UTF-8"?>
<!-- Generator: Adobe Illustrator 26.0.1, SVG Export Plug-In . SVG Version: 6.00 Build 0)  -->
<svg xmlns="http://www.w3.org/2000/svg" xmlns:xlink="http://www.w3.org/1999/xlink" version="1.1" id="Capa_1" x="0px" y="0px" viewBox="0 0 24 24" style="enable-background:new 0 0 24 24;" xml:space="preserve" width="512" height="512">
<g>
	<path style="fill-rule:evenodd;clip-rule:evenodd;" d="M19.084,7.057c-2.707-0.002-4.091,1.991-4.432,2.795   c0.005-1.208-1.187-2.633-2.578-2.635H7.589v9.675l4.182,0.002c1.686,0,2.886-1.462,2.888-2.714   c0.385,0.789,1.72,2.762,4.428,2.762l-0.001,0.002c2.71-0.002,4.916-2.254,4.915-4.965C24,9.21,21.795,7.059,19.084,7.057z    M11.42,14.64h-1.33v-1.633h1.33l0.002,0c0.387,0,0.691,0.382,0.691,0.817C12.112,14.259,11.806,14.64,11.42,14.64z M11.424,11.009   h-1.33V9.374h1.33l0.002,0c0.387,0,0.691,0.382,0.691,0.817C12.117,10.627,11.811,11.009,11.424,11.009z M13.195,11.982h0.002   c0.304-0.039,0.812-0.387,0.991-0.61c-0.063,0.276-0.069,1.073,0.005,1.35C13.987,12.407,13.504,12.02,13.195,11.982z    M19.088,14.444c-1.36,0-2.463-1.102-2.463-2.463c0-1.36,1.103-2.463,2.463-2.463c1.36,0,2.463,1.103,2.463,2.463   C21.551,13.342,20.448,14.444,19.088,14.444z"/>
	<circle style="fill-rule:evenodd;clip-rule:evenodd;" cx="19.088" cy="11.982" r="1.936"/>
	<polygon style="fill-rule:evenodd;clip-rule:evenodd;" points="7.042,16.897 4.413,16.897 4.413,13.143 2.708,13.143 2.708,16.898    0.01,16.898 0,7.221 2.708,7.221 2.708,10.821 4.414,10.821 4.414,7.221 7.043,7.221 7.043,16.898  "/>
	<path style="fill-rule:evenodd;clip-rule:evenodd;" d="M23.463,7.891c0.024,0,0.043-0.005,0.056-0.016   c0.014-0.011,0.021-0.025,0.021-0.044V7.829c0-0.02-0.006-0.035-0.02-0.045s-0.032-0.015-0.055-0.015H23.37v0.122h0.096   L23.463,7.891z M23.293,7.703h0.172c0.05,0,0.089,0.015,0.117,0.043c0.021,0.02,0.032,0.047,0.032,0.081V7.83   c0,0.032-0.008,0.057-0.025,0.076c-0.017,0.02-0.038,0.034-0.065,0.041l0.104,0.145h-0.088L23.447,7.96h-0.08v0.133h-0.073V7.703   L23.293,7.703z M23.441,8.239c0.121,0,0.237-0.066,0.294-0.174c0.005-0.009,0.009-0.018,0.013-0.028   c0.034-0.083,0.033-0.176,0.002-0.26c-0.045-0.118-0.164-0.196-0.288-0.201c-0.005,0-0.01,0-0.015,0   c-0.046,0-0.09,0.009-0.13,0.028c-0.114,0.052-0.191,0.161-0.199,0.287c-0.006,0.094,0.027,0.189,0.093,0.257   C23.272,8.21,23.354,8.239,23.441,8.239z M23.441,8.28c-0.101,0-0.192-0.037-0.265-0.108c-0.033-0.034-0.056-0.075-0.075-0.12   c-0.038-0.09-0.038-0.198,0-0.287c0.037-0.088,0.109-0.158,0.196-0.196c0.091-0.04,0.198-0.037,0.29,0   c0.088,0.036,0.157,0.111,0.195,0.197c0.039,0.088,0.038,0.198,0,0.287c-0.05,0.115-0.153,0.199-0.277,0.221   C23.484,8.278,23.463,8.28,23.441,8.28z"/>
</g>















</svg>
