<?xml version="1.0" encoding="UTF-8"?>
<svg xmlns="http://www.w3.org/2000/svg" id="Layer_1" data-name="Layer 1" viewBox="0 0 24 24" width="512" height="512"><path d="M20.016,24a1,1,0,0,1-.964-1.269c.116-.419.247-.808.377-1.191,1.285-2.684.18-6.683-1.256-8.554A12.313,12.313,0,0,1,17.359.576a1,1,0,0,1,1.811.848,10.307,10.307,0,0,0,.686,10.483c1.675,2.137,2.986,7.113,1.467,10.271-.118.351-.238.708-.345,1.091A1,1,0,0,1,20.016,24Zm-7,0a1,1,0,0,1-.964-1.269c.116-.419.247-.808.377-1.191,1.285-2.684.18-6.683-1.256-8.554A12.313,12.313,0,0,1,10.359.576a1,1,0,0,1,1.811.848,10.307,10.307,0,0,0,.686,10.483c1.675,2.137,2.986,7.113,1.467,10.271-.118.351-.238.708-.345,1.091A1,1,0,0,1,13.016,24Zm-7,0a1,1,0,0,1-.964-1.269c.116-.419.247-.808.377-1.191,1.285-2.684.18-6.683-1.256-8.554A12.313,12.313,0,0,1,3.359.576a1,1,0,0,1,1.811.848,10.307,10.307,0,0,0,.686,10.483c1.675,2.137,2.986,7.113,1.467,10.271-.118.351-.238.708-.345,1.091A1,1,0,0,1,6.016,24Z"/></svg>
