<?xml version="1.0" encoding="UTF-8"?>
<svg xmlns="http://www.w3.org/2000/svg" id="Layer_1" data-name="Layer 1" viewBox="0 0 24 24">
  <path d="m23.955,10.212l-.778-6.095c-.301-2.347-2.312-4.117-4.677-4.117H5.489C3.123,0,1.113,1.77.813,4.117L.034,10.212c-.154,1.21.22,2.43,1.026,3.346.807.917,1.97,1.442,3.19,1.442h6.749v1c0,1.827-1.536,1.993-2,2-1.654,0-3,1.346-3,3s1.346,3,3,3h6c1.654,0,3-1.346,3-3,0-1.619-1.289-2.942-2.895-2.998-.364-.078-2.105-.527-2.105-2.002v-1h6.739c1.221,0,2.383-.525,3.189-1.441.807-.917,1.181-2.136,1.026-3.347Zm-8.955,9.788c.552,0,1,.449,1,1s-.448,1-1,1h-6c-.552,0-1-.449-1-1s.448-1,1-1c.983,0,2.26-.398,3.103-1.378.841.823,1.904,1.27,2.897,1.378Zm6.428-7.763c-.427.485-1.042.763-1.688.763H4.251c-.646,0-1.263-.278-1.689-.764-.427-.485-.625-1.13-.543-1.771l.779-6.095c.172-1.351,1.329-2.37,2.691-2.37h13.011c1.362,0,2.52,1.019,2.692,2.37l.778,6.095c.082.641-.116,1.287-.543,1.772Z"/>
</svg>
