<?xml version="1.0" encoding="UTF-8"?>
<svg xmlns="http://www.w3.org/2000/svg" id="Layer_1" data-name="Layer 1" viewBox="0 0 24 24">
  <path d="m23.782,14.932c-1.651-4.726-6.343-8.189-11.282-8.41V.5c0-.276-.224-.5-.5-.5s-.5.224-.5.5v6.021C6.561,6.743,1.869,10.205.218,14.932c-.415,1.188-.237,2.456.488,3.478.718,1.011,1.84,1.59,3.08,1.59h4.214c0,2.206,1.794,4,4,4s4-1.794,4-4h4.214c1.24,0,2.362-.58,3.08-1.59.726-1.022.903-2.29.488-3.478Zm-11.782,8.068c-1.654,0-3-1.346-3-3h6c0,1.654-1.346,3-3,3Zm10.479-5.169c-.527.743-1.353,1.169-2.265,1.169H3.786c-.912,0-1.737-.426-2.265-1.169-.536-.754-.667-1.691-.36-2.569,1.571-4.498,6.13-7.762,10.839-7.762s9.268,3.264,10.839,7.762c.307.878.176,1.814-.36,2.569Z"/>
</svg>
