<?xml version="1.0" encoding="UTF-8"?>
<svg xmlns="http://www.w3.org/2000/svg" id="Layer_1" data-name="Layer 1" viewBox="0 0 24 24">
  <path d="m19,2H5C2.243,2,0,4.243,0,7v9c0,2.045,1.237,3.802,3,4.576v1.424c0,.553.448,1,1,1s1-.447,1-1v-1h14v1c0,.553.448,1,1,1s1-.447,1-1v-1.424c1.763-.774,3-2.531,3-4.576V7c0-2.757-2.243-5-5-5Zm3,14c0,1.654-1.346,3-3,3H5c-1.654,0-3-1.346-3-3V7c0-1.654,1.346-3,3-3h14c1.654,0,3,1.346,3,3v9ZM14,6H6c-1.103,0-2,.897-2,2v7c0,1.103.897,2,2,2h8c1.103,0,2-.897,2-2v-7c0-1.103-.897-2-2-2ZM6,15v-7h8v7s-8,0-8,0Zm14-8v9c0,.553-.448,1-1,1s-1-.447-1-1V7c0-.552.448-1,1-1s1,.448,1,1Z"/>
</svg>
