<?xml version="1.0" encoding="UTF-8"?>
<svg xmlns="http://www.w3.org/2000/svg" id="Layer_1" data-name="Layer 1" viewBox="0 0 24 24">
  <path d="m19,2H5C2.243,2,0,4.243,0,7v9c0,2.045,1.237,3.802,3,4.576v1.424c0,.553.448,1,1,1s1-.447,1-1v-1h14v1c0,.553.448,1,1,1s1-.447,1-1v-1.424c1.763-.774,3-2.531,3-4.576V7c0-2.757-2.243-5-5-5Zm-2,14c0,1.103-.897,2-2,2H5c-1.103,0-2-.897-2-2V7c0-1.103.897-2,2-2h10c1.103,0,2,.897,2,2v9Zm4,1c0,.553-.448,1-1,1s-1-.447-1-1V6c0-.552.448-1,1-1s1,.448,1,1v11Zm-6-10v9s-10,0-10,0V7h10Z"/>
</svg>
