<?xml version="1.0" encoding="UTF-8"?>
<svg id="Outline" xmlns="http://www.w3.org/2000/svg" version="1.1" viewBox="0 0 512 512">
  <!-- Generator: Adobe Illustrator 29.3.0, SVG Export Plug-In . SVG Version: 2.1.0 Build 146)  -->
  <path d="M277.3,64C275.3,45.9,286.7-.7,256,0c-30.7-.8-19.4,46-21.3,64-153.4.5-157.5,163.2-149.3,277.3,0,94.3,76.4,170.7,170.7,170.7s170.7-76.4,170.7-170.7c8.1-114.1,4.1-276.9-149.3-277.3ZM384,341.3c2.4,166-258.4,166.1-256,0-1.5-83.9-18.1-236.7,106.7-234.6,167.9-16.2,151.7,113.9,149.3,234.7Z"/>
  <path d="M256,149.3c-11.8,0-21.3,9.6-21.3,21.3,2,18-9.4,64.7,21.3,64,11.8,0,21.3-9.5,21.3-21.3-2-18,9.4-64.7-21.3-64Z"/>
</svg>