<svg width="948" height="400" viewBox="0 0 948 400" fill="none" xmlns="http://www.w3.org/2000/svg">
<g clip-path="url(#clip0)">
<path opacity="0.8" fill-rule="evenodd" clip-rule="evenodd" d="M716.537 261.313C713.162 260.547 710.111 258.926 707.625 256.69C705.653 257.927 703.321 258.642 700.821 258.642C693.74 258.642 688 252.902 688 245.821C688 238.74 693.74 233 700.821 233C701.552 233 702.268 233.061 702.966 233.178C706.19 226.478 713.044 221.854 720.977 221.854C722.69 221.854 724.352 222.069 725.938 222.474C729.556 207.291 743.209 196 759.5 196C778.554 196 794 211.446 794 230.5L794 230.533C797.385 227.703 801.743 226 806.5 226C812.022 226 817.008 228.295 820.555 231.984C823.989 225.934 830.489 221.854 837.941 221.854C848.974 221.854 857.918 230.798 857.918 241.831C857.918 249.221 853.905 255.675 847.939 259.13C847.106 270.243 837.826 279 826.5 279C825.266 279 824.055 278.896 822.878 278.696C820.257 283.071 815.471 286 810 286C806.906 286 804.03 285.063 801.642 283.457C796.304 291.043 787.481 296 777.5 296C764.32 296 753.159 287.357 749.375 275.429C745.896 278.372 741.396 280.146 736.482 280.146C725.832 280.146 717.129 271.814 716.537 261.313Z" fill="url(#paint0_linear)"/>
<path fill-rule="evenodd" clip-rule="evenodd" d="M309.082 87H391.143C391.963 85.3102 392.423 83.4131 392.423 81.4086C392.423 75.4903 388.413 70.5085 382.961 69.0322C382.199 54.5268 370.195 43 355.5 43C340.312 43 328 55.3122 328 70.5C328 71.4206 328.045 72.3307 328.134 73.2281C326.419 72.4396 324.511 72 322.5 72C315.044 72 309 78.0442 309 85.5C309 86.007 309.028 86.5075 309.082 87Z" fill="url(#paint1_linear)"/>
<path fill-rule="evenodd" clip-rule="evenodd" d="M33.5 137C43.469 137 51.8533 130.215 54.2871 121.011C55.3633 121.638 56.6361 122 58 122C61.866 122 65 119.09 65 115.5C65 115.332 64.9931 115.165 64.9796 115L65.0278 115C70.566 115 75.0556 110.747 75.0556 105.5C75.0556 100.807 71.4631 96.9083 66.7411 96.1381C66.9767 94.9473 67.1004 93.7149 67.1004 92.4529C67.1004 82.2617 59.0355 74 49.0868 74C41.2552 74 34.5909 79.1197 32.1093 86.2701C31.2709 86.0931 30.4015 86 29.5104 86C24.2237 86 19.7029 89.2765 17.8711 93.9081C15.5702 92.0871 12.6621 91 9.5 91C3.81168 91 -1.05494 94.5181 -3.04267 99.4972C-3.96893 99.175 -4.96402 99 -6 99C-10.9706 99 -15 103.029 -15 108C-15 112.971 -10.9706 117 -6 117C-5.93757 117 -5.87529 116.999 -5.81317 116.998C-5.08466 119.866 -2.31074 122 1 122C3.97083 122 6.5094 120.282 7.52573 117.857C8.17015 117.951 8.82936 118 9.5 118C10.395 118 11.2697 117.913 12.116 117.747C13.2393 128.565 22.3846 137 33.5 137Z" fill="url(#paint2_linear)"/>
<path fill-rule="evenodd" clip-rule="evenodd" d="M183 136.124H257.691C256.395 133.86 254.259 132.382 251.845 132.382C251.443 132.382 251.049 132.422 250.665 132.501C250.95 131.198 251.1 129.844 251.1 128.453C251.1 118.262 243.035 110 233.087 110C226.645 110 220.994 113.463 217.809 118.671C215.744 116.81 213.199 115.712 210.447 115.712C204.673 115.712 199.812 120.545 198.37 127.117C197.64 126.821 196.861 126.66 196.052 126.66C193.071 126.66 190.501 128.833 189.321 131.967C188.797 131.722 188.229 131.587 187.636 131.587C185.382 131.587 183.493 133.524 183 136.124Z" fill="url(#paint3_linear)"/>
<path fill-rule="evenodd" clip-rule="evenodd" d="M329 307.124H403.691C402.395 304.86 400.259 303.382 397.845 303.382C397.443 303.382 397.049 303.422 396.665 303.501C396.95 302.198 397.1 300.844 397.1 299.453C397.1 289.262 389.035 281 379.087 281C372.645 281 366.994 284.463 363.809 289.671C361.744 287.81 359.199 286.712 356.447 286.712C350.673 286.712 345.812 291.545 344.37 298.117C343.64 297.821 342.861 297.66 342.052 297.66C339.071 297.66 336.501 299.833 335.321 302.967C334.797 302.722 334.229 302.587 333.636 302.587C331.382 302.587 329.493 304.524 329 307.124Z" fill="url(#paint4_linear)"/>
<path fill-rule="evenodd" clip-rule="evenodd" d="M856 177.99H896C895.306 176.778 894.162 175.986 892.869 175.986C892.654 175.986 892.443 176.008 892.238 176.05C892.39 175.353 892.47 174.627 892.47 173.882C892.47 168.424 888.151 164 882.823 164C879.374 164 876.347 165.855 874.642 168.644C873.535 167.647 872.173 167.059 870.699 167.059C867.607 167.059 865.004 169.647 864.231 173.167C863.84 173.008 863.423 172.922 862.99 172.922C861.393 172.922 860.017 174.086 859.385 175.764C859.105 175.633 858.8 175.561 858.483 175.561C857.275 175.561 856.264 176.598 856 177.99Z" fill="url(#paint5_linear)"/>
<path fill-rule="evenodd" clip-rule="evenodd" d="M629 185.99H669C668.306 184.778 667.162 183.986 665.869 183.986C665.654 183.986 665.443 184.008 665.238 184.05C665.39 183.353 665.47 182.627 665.47 181.882C665.47 176.424 661.151 172 655.823 172C652.374 172 649.347 173.855 647.642 176.644C646.535 175.647 645.173 175.059 643.699 175.059C640.607 175.059 638.004 177.647 637.231 181.167C636.84 181.008 636.423 180.922 635.99 180.922C634.393 180.922 633.017 182.086 632.385 183.764C632.105 183.633 631.8 183.561 631.483 183.561C630.275 183.561 629.264 184.598 629 185.99Z" fill="url(#paint6_linear)"/>
<path fill-rule="evenodd" clip-rule="evenodd" d="M598.598 86.5292C603.949 74.9974 615.63 67 629.179 67C644.726 67 657.814 77.5305 661.699 91.8482C663.663 91.2027 665.761 90.8535 667.941 90.8535C671.649 90.8535 675.121 91.8637 678.097 93.6238C680.091 89.1325 684.59 86 689.821 86C696.902 86 702.642 91.7403 702.642 98.8212C702.642 105.902 696.902 111.642 689.821 111.642C689.171 111.642 688.532 111.594 687.907 111.501C687.554 122.224 678.75 130.808 667.941 130.808C662.992 130.808 658.464 129.009 654.974 126.028C649.758 132.706 641.63 137 632.5 137C628.847 137 625.355 136.313 622.146 135.061C618.527 138.701 613.515 140.955 607.977 140.955C598.813 140.955 591.09 134.784 588.737 126.371C587.396 126.78 585.974 127 584.5 127C576.492 127 570 120.508 570 112.5C570 105.269 575.293 99.2744 582.216 98.1789C582.074 97.4746 582 96.746 582 96C582 89.9249 586.925 85 593 85C595.044 85 596.958 85.5577 598.598 86.5292Z" fill="url(#paint7_linear)"/>
<path opacity="0.8" fill-rule="evenodd" clip-rule="evenodd" d="M828.599 97.5292C833.949 85.9974 845.63 78 859.179 78C874.726 78 887.814 88.5305 891.699 102.848C893.663 102.203 895.762 101.854 897.942 101.854C901.65 101.854 905.121 102.864 908.097 104.624C910.091 100.132 914.591 97 919.821 97C926.902 97 932.643 102.74 932.643 109.821C932.643 116.902 926.902 122.642 919.821 122.642C919.171 122.642 918.532 122.594 917.908 122.501C917.555 133.224 908.751 141.808 897.942 141.808C892.993 141.808 888.464 140.009 884.975 137.028C879.759 143.706 871.631 148 862.5 148C858.848 148 855.356 147.313 852.146 146.061C848.528 149.701 843.516 151.955 837.978 151.955C828.814 151.955 821.091 145.784 818.737 137.371C817.397 137.78 815.974 138 814.5 138C806.492 138 800 131.508 800 123.5C800 116.269 805.293 110.274 812.216 109.179C812.075 108.475 812 107.746 812 107C812 100.925 816.925 96 823 96C825.045 96 826.959 96.5577 828.599 97.5292Z" fill="url(#paint8_linear)"/>
<path fill-rule="evenodd" clip-rule="evenodd" d="M391.505 53.1223C389.004 55.346 385.72 56.7095 382.12 56.7491C380.641 60.1342 377.263 62.5 373.333 62.5C368.041 62.5 363.75 58.2094 363.75 52.9167L363.75 52.8488C360.499 52.3839 358 49.588 358 46.2083C358 42.5034 361.003 39.5 364.708 39.5C365.801 39.5 366.832 39.761 367.743 40.2241C368.781 33.3053 374.75 28 381.958 28C388.915 28 394.717 32.9412 396.047 39.5053C396.142 39.5018 396.237 39.5 396.333 39.5C400.568 39.5 404 42.9325 404 47.1667C404 51.4009 400.568 54.8333 396.333 54.8333C394.503 54.8333 392.823 54.1922 391.505 53.1223Z" fill="url(#paint9_linear)"/>
</g>
<defs>
<linearGradient id="paint0_linear" x1="833.5" y1="176" x2="691" y2="298" gradientUnits="userSpaceOnUse">
<stop stop-color="white" stop-opacity="0.3"/>
<stop offset="1" stop-color="white" stop-opacity="0"/>
</linearGradient>
<linearGradient id="paint1_linear" x1="381.5" y1="33.5" x2="355.966" y2="123.903" gradientUnits="userSpaceOnUse">
<stop stop-color="white" stop-opacity="0.3"/>
<stop offset="1" stop-color="white" stop-opacity="0"/>
</linearGradient>
<linearGradient id="paint2_linear" x1="60.5" y1="29" x2="-71.083" y2="104.033" gradientUnits="userSpaceOnUse">
<stop stop-color="white" stop-opacity="0.3"/>
<stop offset="1" stop-color="white" stop-opacity="0"/>
</linearGradient>
<linearGradient id="paint3_linear" x1="263" y1="102" x2="197.436" y2="142.707" gradientUnits="userSpaceOnUse">
<stop stop-color="white" stop-opacity="0.3"/>
<stop offset="1" stop-color="white" stop-opacity="0"/>
</linearGradient>
<linearGradient id="paint4_linear" x1="409" y1="273" x2="343.436" y2="313.707" gradientUnits="userSpaceOnUse">
<stop stop-color="white" stop-opacity="0.3"/>
<stop offset="1" stop-color="white" stop-opacity="0"/>
</linearGradient>
<linearGradient id="paint5_linear" x1="898.843" y1="159.716" x2="863.732" y2="181.516" gradientUnits="userSpaceOnUse">
<stop stop-color="white" stop-opacity="0.3"/>
<stop offset="1" stop-color="white" stop-opacity="0"/>
</linearGradient>
<linearGradient id="paint6_linear" x1="671.843" y1="167.716" x2="636.732" y2="189.516" gradientUnits="userSpaceOnUse">
<stop stop-color="white" stop-opacity="0.3"/>
<stop offset="1" stop-color="white" stop-opacity="0"/>
</linearGradient>
<linearGradient id="paint7_linear" x1="631.5" y1="42.0422" x2="556.17" y2="153.359" gradientUnits="userSpaceOnUse">
<stop stop-color="white" stop-opacity="0.3"/>
<stop offset="1" stop-color="white" stop-opacity="0"/>
</linearGradient>
<linearGradient id="paint8_linear" x1="861.5" y1="53.0422" x2="786.171" y2="164.359" gradientUnits="userSpaceOnUse">
<stop stop-color="white" stop-opacity="0.3"/>
<stop offset="1" stop-color="white" stop-opacity="0"/>
</linearGradient>
<linearGradient id="paint9_linear" x1="397.389" y1="21.1" x2="351.326" y2="52.0461" gradientUnits="userSpaceOnUse">
<stop stop-color="white" stop-opacity="0.3"/>
<stop offset="1" stop-color="white" stop-opacity="0"/>
</linearGradient>
<clipPath id="clip0">
<path d="M0 16C0 7.16345 7.16344 0 16 0H932C940.837 0 948 7.16344 948 16V384C948 392.837 940.837 400 932 400H16C7.16346 400 0 392.837 0 384V16Z" fill="white"/>
</clipPath>
</defs>
</svg>