<svg width="948" height="400" viewBox="0 0 948 400" fill="none" xmlns="http://www.w3.org/2000/svg">
<g clip-path="url(#clip0)">
<path opacity="0.7" fill-rule="evenodd" clip-rule="evenodd" d="M593.85 182C594.319 182 594.7 182.396 594.7 182.884V257.616C594.7 258.104 594.319 258.5 593.85 258.5C593.381 258.5 593 258.104 593 257.616V182.884C593 182.396 593.381 182 593.85 182Z" fill="url(#paint0_linear)"/>
<path opacity="0.7" fill-rule="evenodd" clip-rule="evenodd" d="M603.85 192C604.319 192 604.7 192.085 604.7 192.191V208.309C604.7 208.415 604.319 208.5 603.85 208.5C603.381 208.5 603 208.415 603 208.309V192.191C603 192.085 603.381 192 603.85 192Z" fill="url(#paint1_linear)"/>
<path opacity="0.7" fill-rule="evenodd" clip-rule="evenodd" d="M553.85 182C554.319 182 554.7 182.085 554.7 182.191V198.309C554.7 198.415 554.319 198.5 553.85 198.5C553.381 198.5 553 198.415 553 198.309V182.191C553 182.085 553.381 182 553.85 182Z" fill="url(#paint2_linear)"/>
<path opacity="0.7" fill-rule="evenodd" clip-rule="evenodd" d="M553.85 142C554.319 142 554.7 142.085 554.7 142.191V158.309C554.7 158.415 554.319 158.5 553.85 158.5C553.381 158.5 553 158.415 553 158.309V142.191C553 142.085 553.381 142 553.85 142Z" fill="url(#paint3_linear)"/>
<path opacity="0.7" fill-rule="evenodd" clip-rule="evenodd" d="M563.85 132C564.319 132 564.7 132.096 564.7 132.214V150.286C564.7 150.404 564.319 150.5 563.85 150.5C563.381 150.5 563 150.404 563 150.286V132.214C563 132.096 563.381 132 563.85 132Z" fill="url(#paint4_linear)"/>
<path opacity="0.7" fill-rule="evenodd" clip-rule="evenodd" d="M613.85 152C614.319 152 614.7 152.044 614.7 152.098V160.402C614.7 160.456 614.319 160.5 613.85 160.5C613.381 160.5 613 160.456 613 160.402V152.098C613 152.044 613.381 152 613.85 152Z" fill="url(#paint5_linear)"/>
<path opacity="0.7" fill-rule="evenodd" clip-rule="evenodd" d="M623.85 172C624.319 172 624.7 172.199 624.7 172.445V210.055C624.7 210.301 624.319 210.5 623.85 210.5C623.381 210.5 623 210.301 623 210.055V172.445C623 172.199 623.381 172 623.85 172Z" fill="url(#paint6_linear)"/>
<path opacity="0.7" fill-rule="evenodd" clip-rule="evenodd" d="M643.85 142C644.319 142 644.7 142.101 644.7 142.225V161.275C644.7 161.399 644.319 161.5 643.85 161.5C643.381 161.5 643 161.399 643 161.275V142.225C643 142.101 643.381 142 643.85 142Z" fill="url(#paint7_linear)"/>
<path opacity="0.7" fill-rule="evenodd" clip-rule="evenodd" d="M649.85 141C650.319 141 650.7 141.049 650.7 141.11V150.39C650.7 150.451 650.319 150.5 649.85 150.5C649.381 150.5 649 150.451 649 150.39V141.11C649 141.049 649.381 141 649.85 141Z" fill="url(#paint8_linear)"/>
<path opacity="0.7" fill-rule="evenodd" clip-rule="evenodd" d="M299.85 88C300.319 88 300.7 88.1889 300.7 88.422V124.078C300.7 124.311 300.319 124.5 299.85 124.5C299.381 124.5 299 124.311 299 124.078V88.422C299 88.1889 299.381 88 299.85 88Z" fill="url(#paint9_linear)"/>
<path opacity="0.7" fill-rule="evenodd" clip-rule="evenodd" d="M389.85 98C390.319 98 390.7 98.1372 390.7 98.3064V124.194C390.7 124.363 390.319 124.5 389.85 124.5C389.381 124.5 389 124.363 389 124.194V98.3064C389 98.1372 389.381 98 389.85 98Z" fill="url(#paint10_linear)"/>
<path opacity="0.7" fill-rule="evenodd" clip-rule="evenodd" d="M349.85 118C350.319 118 350.7 118.137 350.7 118.306V144.194C350.7 144.363 350.319 144.5 349.85 144.5C349.381 144.5 349 144.363 349 144.194V118.306C349 118.137 349.381 118 349.85 118Z" fill="url(#paint11_linear)"/>
<path opacity="0.7" fill-rule="evenodd" clip-rule="evenodd" d="M359.85 168C360.319 168 360.7 168.085 360.7 168.191V184.309C360.7 184.415 360.319 184.5 359.85 184.5C359.381 184.5 359 184.415 359 184.309V168.191C359 168.085 359.381 168 359.85 168Z" fill="url(#paint12_linear)"/>
<path opacity="0.7" fill-rule="evenodd" clip-rule="evenodd" d="M219.85 137C220.319 137 220.7 137.189 220.7 137.422V173.078C220.7 173.311 220.319 173.5 219.85 173.5C219.381 173.5 219 173.311 219 173.078V137.422C219 137.189 219.381 137 219.85 137Z" fill="url(#paint13_linear)"/>
<path opacity="0.7" fill-rule="evenodd" clip-rule="evenodd" d="M229.85 128C230.319 128 230.7 128.085 230.7 128.191V144.309C230.7 144.415 230.319 144.5 229.85 144.5C229.381 144.5 229 144.415 229 144.309V128.191C229 128.085 229.381 128 229.85 128Z" fill="url(#paint14_linear)"/>
<path opacity="0.7" fill-rule="evenodd" clip-rule="evenodd" d="M319.85 108C320.319 108 320.7 108.096 320.7 108.214V126.286C320.7 126.404 320.319 126.5 319.85 126.5C319.381 126.5 319 126.404 319 126.286V108.214C319 108.096 319.381 108 319.85 108Z" fill="url(#paint15_linear)"/>
<path opacity="0.7" fill-rule="evenodd" clip-rule="evenodd" d="M369.85 128C370.319 128 370.7 128.044 370.7 128.098V136.402C370.7 136.456 370.319 136.5 369.85 136.5C369.381 136.5 369 136.456 369 136.402V128.098C369 128.044 369.381 128 369.85 128Z" fill="url(#paint16_linear)"/>
<path opacity="0.7" fill-rule="evenodd" clip-rule="evenodd" d="M379.85 148C380.319 148 380.7 148.148 380.7 148.329V176.171C380.7 176.352 380.319 176.5 379.85 176.5C379.381 176.5 379 176.352 379 176.171V148.329C379 148.148 379.381 148 379.85 148Z" fill="url(#paint17_linear)"/>
<path opacity="0.7" fill-rule="evenodd" clip-rule="evenodd" d="M399.85 118C400.319 118 400.7 118.101 400.7 118.225V137.275C400.7 137.399 400.319 137.5 399.85 137.5C399.381 137.5 399 137.399 399 137.275V118.225C399 118.101 399.381 118 399.85 118Z" fill="url(#paint18_linear)"/>
<path opacity="0.7" fill-rule="evenodd" clip-rule="evenodd" d="M405.85 117C406.319 117 406.7 117.049 406.7 117.11V126.39C406.7 126.451 406.319 126.5 405.85 126.5C405.381 126.5 405 126.451 405 126.39V117.11C405 117.049 405.381 117 405.85 117Z" fill="url(#paint19_linear)"/>
<path opacity="0.7" fill-rule="evenodd" clip-rule="evenodd" d="M869.85 18C870.319 18 870.7 18.0854 870.7 18.1908V34.3092C870.7 34.4146 870.319 34.5 869.85 34.5C869.381 34.5 869 34.4146 869 34.3092V18.1908C869 18.0854 869.381 18 869.85 18Z" fill="url(#paint20_linear)"/>
<path opacity="0.7" fill-rule="evenodd" clip-rule="evenodd" d="M911.85 6C912.319 6 912.7 6.18892 912.7 6.42197V42.078C912.7 42.3111 912.319 42.5 911.85 42.5C911.381 42.5 911 42.3111 911 42.078V6.42197C911 6.18892 911.381 6 911.85 6Z" fill="url(#paint21_linear)"/>
<path opacity="0.7" fill-rule="evenodd" clip-rule="evenodd" d="M889.85 -2C890.319 -2 890.7 -1.90425 890.7 -1.78613V16.2861C890.7 16.4042 890.319 16.5 889.85 16.5C889.381 16.5 889 16.4042 889 16.2861V-1.78613C889 -1.90425 889.381 -2 889.85 -2Z" fill="url(#paint22_linear)"/>
<path opacity="0.7" fill-rule="evenodd" clip-rule="evenodd" d="M748.85 259C749.319 259 749.7 259.189 749.7 259.422V295.078C749.7 295.311 749.319 295.5 748.85 295.5C748.381 295.5 748 295.311 748 295.078V259.422C748 259.189 748.381 259 748.85 259Z" fill="url(#paint23_linear)"/>
<path opacity="0.7" fill-rule="evenodd" clip-rule="evenodd" d="M838.85 269C839.319 269 839.7 269.137 839.7 269.306V295.194C839.7 295.363 839.319 295.5 838.85 295.5C838.381 295.5 838 295.363 838 295.194V269.306C838 269.137 838.381 269 838.85 269Z" fill="url(#paint24_linear)"/>
<path opacity="0.7" fill-rule="evenodd" clip-rule="evenodd" d="M798.85 289C799.319 289 799.7 289.137 799.7 289.306V315.194C799.7 315.363 799.319 315.5 798.85 315.5C798.381 315.5 798 315.363 798 315.194V289.306C798 289.137 798.381 289 798.85 289Z" fill="url(#paint25_linear)"/>
<path opacity="0.7" fill-rule="evenodd" clip-rule="evenodd" d="M808.85 339C809.319 339 809.7 339.085 809.7 339.191V355.309C809.7 355.415 809.319 355.5 808.85 355.5C808.381 355.5 808 355.415 808 355.309V339.191C808 339.085 808.381 339 808.85 339Z" fill="url(#paint26_linear)"/>
<path opacity="0.7" fill-rule="evenodd" clip-rule="evenodd" d="M668.85 308C669.319 308 669.7 308.189 669.7 308.422V344.078C669.7 344.311 669.319 344.5 668.85 344.5C668.381 344.5 668 344.311 668 344.078V308.422C668 308.189 668.381 308 668.85 308Z" fill="url(#paint27_linear)"/>
<path opacity="0.7" fill-rule="evenodd" clip-rule="evenodd" d="M506.85 180C507.319 180 507.7 180.137 507.7 180.306V206.194C507.7 206.363 507.319 206.5 506.85 206.5C506.381 206.5 506 206.363 506 206.194V180.306C506 180.137 506.381 180 506.85 180Z" fill="url(#paint28_linear)"/>
<path opacity="0.7" fill-rule="evenodd" clip-rule="evenodd" d="M336.85 219C337.319 219 337.7 219.189 337.7 219.422V255.078C337.7 255.311 337.319 255.5 336.85 255.5C336.381 255.5 336 255.311 336 255.078V219.422C336 219.189 336.381 219 336.85 219Z" fill="url(#paint29_linear)"/>
<path opacity="0.7" fill-rule="evenodd" clip-rule="evenodd" d="M678.85 299C679.319 299 679.7 299.085 679.7 299.191V315.309C679.7 315.415 679.319 315.5 678.85 315.5C678.381 315.5 678 315.415 678 315.309V299.191C678 299.085 678.381 299 678.85 299Z" fill="url(#paint30_linear)"/>
<path opacity="0.7" fill-rule="evenodd" clip-rule="evenodd" d="M768.85 279C769.319 279 769.7 279.044 769.7 279.098V287.402C769.7 287.456 769.319 287.5 768.85 287.5C768.381 287.5 768 287.456 768 287.402V279.098C768 279.044 768.381 279 768.85 279Z" fill="url(#paint31_linear)"/>
<path opacity="0.7" fill-rule="evenodd" clip-rule="evenodd" d="M818.85 299C819.319 299 819.7 299.044 819.7 299.098V307.402C819.7 307.456 819.319 307.5 818.85 307.5C818.381 307.5 818 307.456 818 307.402V299.098C818 299.044 818.381 299 818.85 299Z" fill="url(#paint32_linear)"/>
<path opacity="0.7" fill-rule="evenodd" clip-rule="evenodd" d="M828.85 319C829.319 319 829.7 319.148 829.7 319.329V347.171C829.7 347.352 829.319 347.5 828.85 347.5C828.381 347.5 828 347.352 828 347.171V319.329C828 319.148 828.381 319 828.85 319Z" fill="url(#paint33_linear)"/>
<path opacity="0.7" fill-rule="evenodd" clip-rule="evenodd" d="M848.85 289C849.319 289 849.7 289.101 849.7 289.225V308.275C849.7 308.399 849.319 308.5 848.85 308.5C848.381 308.5 848 308.399 848 308.275V289.225C848 289.101 848.381 289 848.85 289Z" fill="url(#paint34_linear)"/>
<path opacity="0.7" fill-rule="evenodd" clip-rule="evenodd" d="M854.85 288C855.319 288 855.7 288.204 855.7 288.457V327.043C855.7 327.296 855.319 327.5 854.85 327.5C854.381 327.5 854 327.296 854 327.043V288.457C854 288.204 854.381 288 854.85 288Z" fill="url(#paint35_linear)"/>
<path opacity="0.7" fill-rule="evenodd" clip-rule="evenodd" d="M61.85 115C62.3194 115 62.7 115.189 62.7 115.422V151.078C62.7 151.311 62.3194 151.5 61.85 151.5C61.3806 151.5 61 151.311 61 151.078V115.422C61 115.189 61.3806 115 61.85 115Z" fill="url(#paint36_linear)"/>
<path opacity="0.7" fill-rule="evenodd" clip-rule="evenodd" d="M281.85 215C282.319 215 282.7 215.137 282.7 215.306V241.194C282.7 241.363 282.319 241.5 281.85 241.5C281.381 241.5 281 241.363 281 241.194V215.306C281 215.137 281.381 215 281.85 215Z" fill="url(#paint37_linear)"/>
<path opacity="0.7" fill-rule="evenodd" clip-rule="evenodd" d="M241.85 235C242.319 235 242.7 235.137 242.7 235.306V261.194C242.7 261.363 242.319 261.5 241.85 261.5C241.381 261.5 241 261.363 241 261.194V235.306C241 235.137 241.381 235 241.85 235Z" fill="url(#paint38_linear)"/>
<path opacity="0.7" fill-rule="evenodd" clip-rule="evenodd" d="M11.85 175C12.3194 175 12.7 175.085 12.7 175.191V191.309C12.7 191.415 12.3194 191.5 11.85 191.5C11.3806 191.5 11 191.415 11 191.309V175.191C11 175.085 11.3806 175 11.85 175Z" fill="url(#paint39_linear)"/>
<path opacity="0.7" fill-rule="evenodd" clip-rule="evenodd" d="M111.85 254C112.319 254 112.7 254.189 112.7 254.422V290.078C112.7 290.311 112.319 290.5 111.85 290.5C111.381 290.5 111 290.311 111 290.078V254.422C111 254.189 111.381 254 111.85 254Z" fill="url(#paint40_linear)"/>
<path opacity="0.7" fill-rule="evenodd" clip-rule="evenodd" d="M121.85 245C122.319 245 122.7 245.085 122.7 245.191V261.309C122.7 261.415 122.319 261.5 121.85 261.5C121.381 261.5 121 261.415 121 261.309V245.191C121 245.085 121.381 245 121.85 245Z" fill="url(#paint41_linear)"/>
<path opacity="0.7" fill-rule="evenodd" clip-rule="evenodd" d="M211.85 205C212.319 205 212.7 205.148 212.7 205.329V233.171C212.7 233.352 212.319 233.5 211.85 233.5C211.381 233.5 211 233.352 211 233.171V205.329C211 205.148 211.381 205 211.85 205Z" fill="url(#paint42_linear)"/>
<path opacity="0.7" fill-rule="evenodd" clip-rule="evenodd" d="M81.85 125C82.3194 125 82.7 125.096 82.7 125.214V143.286C82.7 143.404 82.3194 143.5 81.85 143.5C81.3806 143.5 81 143.404 81 143.286V125.214C81 125.096 81.3806 125 81.85 125Z" fill="url(#paint43_linear)"/>
<path opacity="0.7" fill-rule="evenodd" clip-rule="evenodd" d="M91.85 145C92.3194 145 92.7 145.096 92.7 145.214V163.286C92.7 163.404 92.3194 163.5 91.85 163.5C91.3806 163.5 91 163.404 91 163.286V145.214C91 145.096 91.3806 145 91.85 145Z" fill="url(#paint44_linear)"/>
<path opacity="0.7" fill-rule="evenodd" clip-rule="evenodd" d="M289.85 237C290.319 237 290.7 237.049 290.7 237.11V246.39C290.7 246.451 290.319 246.5 289.85 246.5C289.381 246.5 289 246.451 289 246.39V237.11C289 237.049 289.381 237 289.85 237Z" fill="url(#paint45_linear)"/>
<path opacity="0.7" fill-rule="evenodd" clip-rule="evenodd" d="M297.85 214C298.319 214 298.7 214.153 298.7 214.341V243.159C298.7 243.347 298.319 243.5 297.85 243.5C297.381 243.5 297 243.347 297 243.159V214.341C297 214.153 297.381 214 297.85 214Z" fill="url(#paint46_linear)"/>
<path opacity="0.7" fill-rule="evenodd" clip-rule="evenodd" d="M823.85 159C824.319 159 824.7 159.189 824.7 159.422V195.078C824.7 195.311 824.319 195.5 823.85 195.5C823.381 195.5 823 195.311 823 195.078V159.422C823 159.189 823.381 159 823.85 159Z" fill="url(#paint47_linear)"/>
<path opacity="0.7" fill-rule="evenodd" clip-rule="evenodd" d="M913.85 159C914.319 159 914.7 159.137 914.7 159.306V185.194C914.7 185.363 914.319 185.5 913.85 185.5C913.381 185.5 913 185.363 913 185.194V159.306C913 159.137 913.381 159 913.85 159Z" fill="url(#paint48_linear)"/>
<path opacity="0.7" fill-rule="evenodd" clip-rule="evenodd" d="M873.85 179C874.319 179 874.7 179.137 874.7 179.306V205.194C874.7 205.363 874.319 205.5 873.85 205.5C873.381 205.5 873 205.363 873 205.194V179.306C873 179.137 873.381 179 873.85 179Z" fill="url(#paint49_linear)"/>
<path opacity="0.7" fill-rule="evenodd" clip-rule="evenodd" d="M843.85 169C844.319 169 844.7 169.199 844.7 169.445V207.055C844.7 207.301 844.319 207.5 843.85 207.5C843.381 207.5 843 207.301 843 207.055V169.445C843 169.199 843.381 169 843.85 169Z" fill="url(#paint50_linear)"/>
<path opacity="0.7" fill-rule="evenodd" clip-rule="evenodd" d="M713.85 69C714.319 69 714.7 69.044 714.7 69.0983V77.4017C714.7 77.456 714.319 77.5 713.85 77.5C713.381 77.5 713 77.456 713 77.4017V69.0983C713 69.044 713.381 69 713.85 69Z" fill="url(#paint51_linear)"/>
<path opacity="0.7" fill-rule="evenodd" clip-rule="evenodd" d="M723.85 89C724.319 89 724.7 89.0958 724.7 89.2139V107.286C724.7 107.404 724.319 107.5 723.85 107.5C723.381 107.5 723 107.404 723 107.286V89.2139C723 89.0958 723.381 89 723.85 89Z" fill="url(#paint52_linear)"/>
<path opacity="0.7" fill-rule="evenodd" clip-rule="evenodd" d="M923.85 179C924.319 179 924.7 179.101 924.7 179.225V198.275C924.7 198.399 924.319 198.5 923.85 198.5C923.381 198.5 923 198.399 923 198.275V179.225C923 179.101 923.381 179 923.85 179Z" fill="url(#paint53_linear)"/>
<path opacity="0.7" fill-rule="evenodd" clip-rule="evenodd" d="M929.85 178C930.319 178 930.7 178.049 930.7 178.11V187.39C930.7 187.451 930.319 187.5 929.85 187.5C929.381 187.5 929 187.451 929 187.39V178.11C929 178.049 929.381 178 929.85 178Z" fill="url(#paint54_linear)"/>
<path opacity="0.7" fill-rule="evenodd" clip-rule="evenodd" d="M923.85 19C924.319 19 924.7 19.1889 924.7 19.422V55.078C924.7 55.3111 924.319 55.5 923.85 55.5C923.381 55.5 923 55.3111 923 55.078V19.422C923 19.1889 923.381 19 923.85 19Z" fill="url(#paint55_linear)"/>
<path opacity="0.7" fill-rule="evenodd" clip-rule="evenodd" d="M943.85 29C944.319 29 944.7 29.044 944.7 29.0983V37.4017C944.7 37.456 944.319 37.5 943.85 37.5C943.381 37.5 943 37.456 943 37.4017V29.0983C943 29.044 943.381 29 943.85 29Z" fill="url(#paint56_linear)"/>
<path opacity="0.8" fill-rule="evenodd" clip-rule="evenodd" d="M716.537 261.313C713.162 260.547 710.111 258.926 707.625 256.69C705.653 257.927 703.321 258.642 700.821 258.642C693.74 258.642 688 252.902 688 245.821C688 238.74 693.74 233 700.821 233C701.552 233 702.268 233.061 702.966 233.178C706.19 226.478 713.044 221.854 720.977 221.854C722.69 221.854 724.352 222.069 725.938 222.474C729.556 207.291 743.209 196 759.5 196C778.554 196 794 211.446 794 230.5L794 230.533C797.385 227.703 801.743 226 806.5 226C812.022 226 817.008 228.295 820.555 231.984C823.989 225.934 830.489 221.854 837.941 221.854C848.974 221.854 857.918 230.798 857.918 241.831C857.918 249.221 853.905 255.675 847.939 259.13C847.106 270.243 837.826 279 826.5 279C825.266 279 824.055 278.896 822.878 278.696C820.257 283.071 815.471 286 810 286C806.906 286 804.03 285.063 801.642 283.457C796.304 291.043 787.481 296 777.5 296C764.32 296 753.159 287.357 749.375 275.429C745.896 278.372 741.396 280.146 736.482 280.146C725.832 280.146 717.129 271.814 716.537 261.313Z" fill="url(#paint57_linear)"/>
<path fill-rule="evenodd" clip-rule="evenodd" d="M309.082 87H391.143C391.963 85.3102 392.423 83.4131 392.423 81.4086C392.423 75.4903 388.413 70.5085 382.961 69.0322C382.199 54.5268 370.195 43 355.5 43C340.312 43 328 55.3122 328 70.5C328 71.4206 328.045 72.3307 328.134 73.2281C326.419 72.4396 324.511 72 322.5 72C315.044 72 309 78.0442 309 85.5C309 86.007 309.028 86.5075 309.082 87Z" fill="url(#paint58_linear)"/>
<path fill-rule="evenodd" clip-rule="evenodd" d="M33.5 137C43.469 137 51.8533 130.215 54.2871 121.011C55.3633 121.638 56.6361 122 58 122C61.866 122 65 119.09 65 115.5C65 115.332 64.9931 115.165 64.9796 115L65.0278 115C70.566 115 75.0556 110.747 75.0556 105.5C75.0556 100.807 71.4631 96.9083 66.7411 96.1381C66.9767 94.9473 67.1004 93.7149 67.1004 92.4529C67.1004 82.2617 59.0355 74 49.0868 74C41.2552 74 34.5909 79.1197 32.1093 86.2701C31.2709 86.0931 30.4015 86 29.5104 86C24.2237 86 19.7029 89.2765 17.8711 93.9081C15.5702 92.0871 12.6621 91 9.5 91C3.81168 91 -1.05494 94.5181 -3.04267 99.4972C-3.96893 99.175 -4.96402 99 -6 99C-10.9706 99 -15 103.029 -15 108C-15 112.971 -10.9706 117 -6 117C-5.93757 117 -5.87529 116.999 -5.81317 116.998C-5.08466 119.866 -2.31074 122 1 122C3.97083 122 6.5094 120.282 7.52573 117.857C8.17015 117.951 8.82936 118 9.5 118C10.395 118 11.2697 117.913 12.116 117.747C13.2393 128.565 22.3846 137 33.5 137Z" fill="url(#paint59_linear)"/>
<path fill-rule="evenodd" clip-rule="evenodd" d="M183 136.124H257.691C256.395 133.86 254.259 132.382 251.845 132.382C251.443 132.382 251.049 132.422 250.665 132.501C250.95 131.198 251.1 129.844 251.1 128.453C251.1 118.262 243.035 110 233.087 110C226.645 110 220.994 113.463 217.809 118.671C215.744 116.81 213.199 115.712 210.447 115.712C204.673 115.712 199.812 120.545 198.37 127.117C197.64 126.821 196.861 126.66 196.052 126.66C193.071 126.66 190.501 128.833 189.321 131.967C188.797 131.722 188.229 131.587 187.636 131.587C185.382 131.587 183.493 133.524 183 136.124Z" fill="url(#paint60_linear)"/>
<path fill-rule="evenodd" clip-rule="evenodd" d="M329 307.124H403.691C402.395 304.86 400.259 303.382 397.845 303.382C397.443 303.382 397.049 303.422 396.665 303.501C396.95 302.198 397.1 300.844 397.1 299.453C397.1 289.262 389.035 281 379.087 281C372.645 281 366.994 284.463 363.809 289.671C361.744 287.81 359.199 286.712 356.447 286.712C350.673 286.712 345.812 291.545 344.37 298.117C343.64 297.821 342.861 297.66 342.052 297.66C339.071 297.66 336.501 299.833 335.321 302.967C334.797 302.722 334.229 302.587 333.636 302.587C331.382 302.587 329.493 304.524 329 307.124Z" fill="url(#paint61_linear)"/>
<path fill-rule="evenodd" clip-rule="evenodd" d="M856 177.99H896C895.306 176.778 894.162 175.986 892.869 175.986C892.654 175.986 892.443 176.008 892.238 176.05C892.39 175.353 892.47 174.627 892.47 173.882C892.47 168.424 888.151 164 882.823 164C879.374 164 876.347 165.855 874.642 168.644C873.535 167.647 872.173 167.059 870.699 167.059C867.607 167.059 865.004 169.647 864.231 173.167C863.84 173.008 863.423 172.922 862.99 172.922C861.393 172.922 860.017 174.086 859.385 175.764C859.105 175.633 858.8 175.561 858.483 175.561C857.275 175.561 856.264 176.598 856 177.99Z" fill="url(#paint62_linear)"/>
<path fill-rule="evenodd" clip-rule="evenodd" d="M629 185.99H669C668.306 184.778 667.162 183.986 665.869 183.986C665.654 183.986 665.443 184.008 665.238 184.05C665.39 183.353 665.47 182.627 665.47 181.882C665.47 176.424 661.151 172 655.823 172C652.374 172 649.347 173.855 647.642 176.644C646.535 175.647 645.173 175.059 643.699 175.059C640.607 175.059 638.004 177.647 637.231 181.167C636.84 181.008 636.423 180.922 635.99 180.922C634.393 180.922 633.017 182.086 632.385 183.764C632.105 183.633 631.8 183.561 631.483 183.561C630.275 183.561 629.264 184.598 629 185.99Z" fill="url(#paint63_linear)"/>
<path fill-rule="evenodd" clip-rule="evenodd" d="M598.598 86.5292C603.949 74.9974 615.63 67 629.179 67C644.726 67 657.814 77.5305 661.699 91.8482C663.663 91.2027 665.761 90.8535 667.941 90.8535C671.649 90.8535 675.121 91.8637 678.097 93.6238C680.091 89.1325 684.59 86 689.821 86C696.902 86 702.642 91.7403 702.642 98.8212C702.642 105.902 696.902 111.642 689.821 111.642C689.171 111.642 688.532 111.594 687.907 111.501C687.554 122.224 678.75 130.808 667.941 130.808C662.992 130.808 658.464 129.009 654.974 126.028C649.758 132.706 641.63 137 632.5 137C628.847 137 625.355 136.313 622.146 135.061C618.527 138.701 613.515 140.955 607.977 140.955C598.813 140.955 591.09 134.784 588.737 126.371C587.396 126.78 585.974 127 584.5 127C576.492 127 570 120.508 570 112.5C570 105.269 575.293 99.2744 582.216 98.1789C582.074 97.4746 582 96.746 582 96C582 89.9249 586.925 85 593 85C595.044 85 596.958 85.5577 598.598 86.5292Z" fill="url(#paint64_linear)"/>
<path opacity="0.8" fill-rule="evenodd" clip-rule="evenodd" d="M828.599 97.5292C833.949 85.9974 845.63 78 859.179 78C874.726 78 887.814 88.5305 891.699 102.848C893.663 102.203 895.762 101.854 897.942 101.854C901.65 101.854 905.121 102.864 908.097 104.624C910.091 100.132 914.591 97 919.821 97C926.902 97 932.643 102.74 932.643 109.821C932.643 116.902 926.902 122.642 919.821 122.642C919.171 122.642 918.532 122.594 917.908 122.501C917.555 133.224 908.751 141.808 897.942 141.808C892.993 141.808 888.464 140.009 884.975 137.028C879.759 143.706 871.631 148 862.5 148C858.848 148 855.356 147.313 852.146 146.061C848.528 149.701 843.516 151.955 837.978 151.955C828.814 151.955 821.091 145.784 818.737 137.371C817.397 137.78 815.974 138 814.5 138C806.492 138 800 131.508 800 123.5C800 116.269 805.293 110.274 812.216 109.179C812.075 108.475 812 107.746 812 107C812 100.925 816.925 96 823 96C825.045 96 826.959 96.5577 828.599 97.5292Z" fill="url(#paint65_linear)"/>
<path fill-rule="evenodd" clip-rule="evenodd" d="M391.505 53.1223C389.004 55.346 385.72 56.7095 382.12 56.7491C380.641 60.1342 377.263 62.5 373.333 62.5C368.041 62.5 363.75 58.2094 363.75 52.9167L363.75 52.8488C360.499 52.3839 358 49.588 358 46.2083C358 42.5034 361.003 39.5 364.708 39.5C365.801 39.5 366.832 39.761 367.743 40.2241C368.781 33.3053 374.75 28 381.958 28C388.915 28 394.717 32.9412 396.047 39.5053C396.142 39.5018 396.237 39.5 396.333 39.5C400.568 39.5 404 42.9325 404 47.1667C404 51.4009 400.568 54.8333 396.333 54.8333C394.503 54.8333 392.823 54.1922 391.505 53.1223Z" fill="url(#paint66_linear)"/>
<path fill-rule="evenodd" clip-rule="evenodd" d="M117.422 258.595C117.422 262.23 116.855 265.729 115.805 269.008C119.792 264.529 125.6 261.709 132.068 261.709C135.66 261.709 139.049 262.579 142.035 264.12C145.771 258.895 151.889 255.49 158.802 255.49C170.178 255.49 179.401 264.713 179.401 276.089C179.401 276.135 179.401 276.18 179.4 276.226C180.73 275.878 182.126 275.693 183.564 275.693C192.641 275.693 200 283.052 200 292.129C200 301.207 192.641 308.565 183.564 308.565C181.912 308.565 180.317 308.321 178.813 307.868C178.486 307.894 178.155 307.907 177.822 307.907C174.514 307.907 171.508 306.616 169.28 304.51C166.424 306.908 162.741 308.351 158.72 308.351C153.777 308.351 149.344 306.169 146.331 302.715C145.642 302.331 144.976 301.911 144.336 301.457C140.843 303.845 136.618 305.242 132.068 305.242C125.162 305.242 119.007 302.026 115.02 297.01C114.136 297.503 113.187 297.891 112.187 298.158C111.184 299.012 109.858 299.531 108.404 299.531L108.377 299.531C108.385 299.624 108.388 299.718 108.388 299.813C108.388 301.84 106.619 303.483 104.436 303.483C103.666 303.483 102.947 303.279 102.34 302.925C100.965 308.122 96.2314 311.953 90.6026 311.953C84.3265 311.953 79.1628 307.19 78.5285 301.082C78.0507 301.176 77.5568 301.225 77.0515 301.225C76.8842 301.225 76.7182 301.22 76.5536 301.209C76.3079 301.303 76.0539 301.383 75.7928 301.446C75.1457 302.654 73.8033 303.483 72.2521 303.483C71.5832 303.483 70.9531 303.329 70.4008 303.057C67.6822 309.642 61.1978 314.276 53.631 314.276C44.2552 314.276 36.5413 307.161 35.5938 298.036C34.8799 298.176 34.1421 298.25 33.3871 298.25C27.0982 298.25 22 293.152 22 286.863C22 280.574 27.0982 275.476 33.3871 275.476C36.0543 275.476 38.5073 276.393 40.448 277.929C41.9931 274.022 45.8064 271.258 50.2657 271.258C51.6112 271.258 52.8979 271.51 54.0812 271.968C52.331 267.87 51.3607 263.348 51.3607 258.595C51.3607 240.041 66.1491 225 84.3915 225C102.634 225 117.422 240.041 117.422 258.595ZM70.8084 289.228C70.7203 289.353 70.6359 289.482 70.5553 289.613C70.4745 289.403 70.3898 289.195 70.3014 288.99C70.4697 289.07 70.6387 289.15 70.8084 289.228Z" fill="url(#paint67_linear)"/>
</g>
<defs>
<linearGradient id="paint0_linear" x1="593.85" y1="182" x2="593.85" y2="258.942" gradientUnits="userSpaceOnUse">
<stop offset="0.0001" stop-color="white" stop-opacity="0.3"/>
<stop offset="0.0002" stop-color="white" stop-opacity="0"/>
<stop offset="1" stop-color="white" stop-opacity="0.31"/>
</linearGradient>
<linearGradient id="paint1_linear" x1="603.85" y1="192" x2="603.85" y2="208.595" gradientUnits="userSpaceOnUse">
<stop offset="0.0001" stop-color="white" stop-opacity="0.3"/>
<stop offset="0.0002" stop-color="white" stop-opacity="0"/>
<stop offset="1" stop-color="white" stop-opacity="0.31"/>
</linearGradient>
<linearGradient id="paint2_linear" x1="553.85" y1="182" x2="553.85" y2="198.595" gradientUnits="userSpaceOnUse">
<stop offset="0.0001" stop-color="white" stop-opacity="0.3"/>
<stop offset="0.0002" stop-color="white" stop-opacity="0"/>
<stop offset="1" stop-color="white" stop-opacity="0.31"/>
</linearGradient>
<linearGradient id="paint3_linear" x1="553.85" y1="142" x2="553.85" y2="158.595" gradientUnits="userSpaceOnUse">
<stop offset="0.0001" stop-color="white" stop-opacity="0.3"/>
<stop offset="0.0002" stop-color="white" stop-opacity="0"/>
<stop offset="1" stop-color="white" stop-opacity="0.31"/>
</linearGradient>
<linearGradient id="paint4_linear" x1="563.85" y1="132" x2="563.85" y2="150.607" gradientUnits="userSpaceOnUse">
<stop offset="0.0001" stop-color="white" stop-opacity="0.3"/>
<stop offset="0.0002" stop-color="white" stop-opacity="0"/>
<stop offset="1" stop-color="white" stop-opacity="0.31"/>
</linearGradient>
<linearGradient id="paint5_linear" x1="613.85" y1="152" x2="613.85" y2="160.549" gradientUnits="userSpaceOnUse">
<stop offset="0.0001" stop-color="white" stop-opacity="0.3"/>
<stop offset="0.0002" stop-color="white" stop-opacity="0"/>
<stop offset="1" stop-color="white" stop-opacity="0.31"/>
</linearGradient>
<linearGradient id="paint6_linear" x1="623.85" y1="172" x2="623.85" y2="210.723" gradientUnits="userSpaceOnUse">
<stop offset="0.0001" stop-color="white" stop-opacity="0.3"/>
<stop offset="0.0002" stop-color="white" stop-opacity="0"/>
<stop offset="1" stop-color="white" stop-opacity="0.31"/>
</linearGradient>
<linearGradient id="paint7_linear" x1="643.85" y1="142" x2="643.85" y2="161.613" gradientUnits="userSpaceOnUse">
<stop offset="0.0001" stop-color="white" stop-opacity="0.3"/>
<stop offset="0.0002" stop-color="white" stop-opacity="0"/>
<stop offset="1" stop-color="white" stop-opacity="0.31"/>
</linearGradient>
<linearGradient id="paint8_linear" x1="649.85" y1="141" x2="649.85" y2="150.555" gradientUnits="userSpaceOnUse">
<stop offset="0.0001" stop-color="white" stop-opacity="0.3"/>
<stop offset="0.0002" stop-color="white" stop-opacity="0"/>
<stop offset="1" stop-color="white" stop-opacity="0.31"/>
</linearGradient>
<linearGradient id="paint9_linear" x1="299.85" y1="88" x2="299.85" y2="124.711" gradientUnits="userSpaceOnUse">
<stop offset="0.0001" stop-color="white" stop-opacity="0.3"/>
<stop offset="0.0002" stop-color="white" stop-opacity="0"/>
<stop offset="1" stop-color="white" stop-opacity="0.31"/>
</linearGradient>
<linearGradient id="paint10_linear" x1="389.85" y1="98" x2="389.85" y2="124.653" gradientUnits="userSpaceOnUse">
<stop offset="0.0001" stop-color="white" stop-opacity="0.3"/>
<stop offset="0.0002" stop-color="white" stop-opacity="0"/>
<stop offset="1" stop-color="white" stop-opacity="0.31"/>
</linearGradient>
<linearGradient id="paint11_linear" x1="349.85" y1="118" x2="349.85" y2="144.653" gradientUnits="userSpaceOnUse">
<stop offset="0.0001" stop-color="white" stop-opacity="0.3"/>
<stop offset="0.0002" stop-color="white" stop-opacity="0"/>
<stop offset="1" stop-color="white" stop-opacity="0.31"/>
</linearGradient>
<linearGradient id="paint12_linear" x1="359.85" y1="168" x2="359.85" y2="184.595" gradientUnits="userSpaceOnUse">
<stop offset="0.0001" stop-color="white" stop-opacity="0.3"/>
<stop offset="0.0002" stop-color="white" stop-opacity="0"/>
<stop offset="1" stop-color="white" stop-opacity="0.31"/>
</linearGradient>
<linearGradient id="paint13_linear" x1="219.85" y1="137" x2="219.85" y2="173.711" gradientUnits="userSpaceOnUse">
<stop offset="0.0001" stop-color="white" stop-opacity="0.3"/>
<stop offset="0.0002" stop-color="white" stop-opacity="0"/>
<stop offset="1" stop-color="white" stop-opacity="0.31"/>
</linearGradient>
<linearGradient id="paint14_linear" x1="229.85" y1="128" x2="229.85" y2="144.595" gradientUnits="userSpaceOnUse">
<stop offset="0.0001" stop-color="white" stop-opacity="0.3"/>
<stop offset="0.0002" stop-color="white" stop-opacity="0"/>
<stop offset="1" stop-color="white" stop-opacity="0.31"/>
</linearGradient>
<linearGradient id="paint15_linear" x1="319.85" y1="108" x2="319.85" y2="126.607" gradientUnits="userSpaceOnUse">
<stop offset="0.0001" stop-color="white" stop-opacity="0.3"/>
<stop offset="0.0002" stop-color="white" stop-opacity="0"/>
<stop offset="1" stop-color="white" stop-opacity="0.31"/>
</linearGradient>
<linearGradient id="paint16_linear" x1="369.85" y1="128" x2="369.85" y2="136.549" gradientUnits="userSpaceOnUse">
<stop offset="0.0001" stop-color="white" stop-opacity="0.3"/>
<stop offset="0.0002" stop-color="white" stop-opacity="0"/>
<stop offset="1" stop-color="white" stop-opacity="0.31"/>
</linearGradient>
<linearGradient id="paint17_linear" x1="379.85" y1="148" x2="379.85" y2="176.665" gradientUnits="userSpaceOnUse">
<stop offset="0.0001" stop-color="white" stop-opacity="0.3"/>
<stop offset="0.0002" stop-color="white" stop-opacity="0"/>
<stop offset="1" stop-color="white" stop-opacity="0.31"/>
</linearGradient>
<linearGradient id="paint18_linear" x1="399.85" y1="118" x2="399.85" y2="137.613" gradientUnits="userSpaceOnUse">
<stop offset="0.0001" stop-color="white" stop-opacity="0.3"/>
<stop offset="0.0002" stop-color="white" stop-opacity="0"/>
<stop offset="1" stop-color="white" stop-opacity="0.31"/>
</linearGradient>
<linearGradient id="paint19_linear" x1="405.85" y1="117" x2="405.85" y2="126.555" gradientUnits="userSpaceOnUse">
<stop offset="0.0001" stop-color="white" stop-opacity="0.3"/>
<stop offset="0.0002" stop-color="white" stop-opacity="0"/>
<stop offset="1" stop-color="white" stop-opacity="0.31"/>
</linearGradient>
<linearGradient id="paint20_linear" x1="869.85" y1="18" x2="869.85" y2="34.5954" gradientUnits="userSpaceOnUse">
<stop offset="0.0001" stop-color="white" stop-opacity="0.3"/>
<stop offset="0.0002" stop-color="white" stop-opacity="0"/>
<stop offset="1" stop-color="white" stop-opacity="0.31"/>
</linearGradient>
<linearGradient id="paint21_linear" x1="911.85" y1="6" x2="911.85" y2="42.711" gradientUnits="userSpaceOnUse">
<stop offset="0.0001" stop-color="white" stop-opacity="0.3"/>
<stop offset="0.0002" stop-color="white" stop-opacity="0"/>
<stop offset="1" stop-color="white" stop-opacity="0.31"/>
</linearGradient>
<linearGradient id="paint22_linear" x1="889.85" y1="-2" x2="889.85" y2="16.6069" gradientUnits="userSpaceOnUse">
<stop offset="0.0001" stop-color="white" stop-opacity="0.3"/>
<stop offset="0.0002" stop-color="white" stop-opacity="0"/>
<stop offset="1" stop-color="white" stop-opacity="0.31"/>
</linearGradient>
<linearGradient id="paint23_linear" x1="748.85" y1="259" x2="748.85" y2="295.711" gradientUnits="userSpaceOnUse">
<stop offset="0.0001" stop-color="white" stop-opacity="0.3"/>
<stop offset="0.0002" stop-color="white" stop-opacity="0"/>
<stop offset="1" stop-color="white" stop-opacity="0.31"/>
</linearGradient>
<linearGradient id="paint24_linear" x1="838.85" y1="269" x2="838.85" y2="295.653" gradientUnits="userSpaceOnUse">
<stop offset="0.0001" stop-color="white" stop-opacity="0.3"/>
<stop offset="0.0002" stop-color="white" stop-opacity="0"/>
<stop offset="1" stop-color="white" stop-opacity="0.31"/>
</linearGradient>
<linearGradient id="paint25_linear" x1="798.85" y1="289" x2="798.85" y2="315.653" gradientUnits="userSpaceOnUse">
<stop offset="0.0001" stop-color="white" stop-opacity="0.3"/>
<stop offset="0.0002" stop-color="white" stop-opacity="0"/>
<stop offset="1" stop-color="white" stop-opacity="0.31"/>
</linearGradient>
<linearGradient id="paint26_linear" x1="808.85" y1="339" x2="808.85" y2="355.595" gradientUnits="userSpaceOnUse">
<stop offset="0.0001" stop-color="white" stop-opacity="0.3"/>
<stop offset="0.0002" stop-color="white" stop-opacity="0"/>
<stop offset="1" stop-color="white" stop-opacity="0.31"/>
</linearGradient>
<linearGradient id="paint27_linear" x1="668.85" y1="308" x2="668.85" y2="344.711" gradientUnits="userSpaceOnUse">
<stop offset="0.0001" stop-color="white" stop-opacity="0.3"/>
<stop offset="0.0002" stop-color="white" stop-opacity="0"/>
<stop offset="1" stop-color="white" stop-opacity="0.31"/>
</linearGradient>
<linearGradient id="paint28_linear" x1="506.85" y1="180" x2="506.85" y2="206.653" gradientUnits="userSpaceOnUse">
<stop offset="0.0001" stop-color="white" stop-opacity="0.3"/>
<stop offset="0.0002" stop-color="white" stop-opacity="0"/>
<stop offset="1" stop-color="white" stop-opacity="0.31"/>
</linearGradient>
<linearGradient id="paint29_linear" x1="336.85" y1="219" x2="336.85" y2="255.711" gradientUnits="userSpaceOnUse">
<stop offset="0.0001" stop-color="white" stop-opacity="0.3"/>
<stop offset="0.0002" stop-color="white" stop-opacity="0"/>
<stop offset="1" stop-color="white" stop-opacity="0.31"/>
</linearGradient>
<linearGradient id="paint30_linear" x1="678.85" y1="299" x2="678.85" y2="315.595" gradientUnits="userSpaceOnUse">
<stop offset="0.0001" stop-color="white" stop-opacity="0.3"/>
<stop offset="0.0002" stop-color="white" stop-opacity="0"/>
<stop offset="1" stop-color="white" stop-opacity="0.31"/>
</linearGradient>
<linearGradient id="paint31_linear" x1="768.85" y1="279" x2="768.85" y2="287.549" gradientUnits="userSpaceOnUse">
<stop offset="0.0001" stop-color="white" stop-opacity="0.3"/>
<stop offset="0.0002" stop-color="white" stop-opacity="0"/>
<stop offset="1" stop-color="white" stop-opacity="0.31"/>
</linearGradient>
<linearGradient id="paint32_linear" x1="818.85" y1="299" x2="818.85" y2="307.549" gradientUnits="userSpaceOnUse">
<stop offset="0.0001" stop-color="white" stop-opacity="0.3"/>
<stop offset="0.0002" stop-color="white" stop-opacity="0"/>
<stop offset="1" stop-color="white" stop-opacity="0.31"/>
</linearGradient>
<linearGradient id="paint33_linear" x1="828.85" y1="319" x2="828.85" y2="347.665" gradientUnits="userSpaceOnUse">
<stop offset="0.0001" stop-color="white" stop-opacity="0.3"/>
<stop offset="0.0002" stop-color="white" stop-opacity="0"/>
<stop offset="1" stop-color="white" stop-opacity="0.31"/>
</linearGradient>
<linearGradient id="paint34_linear" x1="848.85" y1="289" x2="848.85" y2="308.613" gradientUnits="userSpaceOnUse">
<stop offset="0.0001" stop-color="white" stop-opacity="0.3"/>
<stop offset="0.0002" stop-color="white" stop-opacity="0"/>
<stop offset="1" stop-color="white" stop-opacity="0.31"/>
</linearGradient>
<linearGradient id="paint35_linear" x1="854.85" y1="288" x2="854.85" y2="327.728" gradientUnits="userSpaceOnUse">
<stop offset="0.0001" stop-color="white" stop-opacity="0.3"/>
<stop offset="0.0002" stop-color="white" stop-opacity="0"/>
<stop offset="1" stop-color="white" stop-opacity="0.31"/>
</linearGradient>
<linearGradient id="paint36_linear" x1="61.85" y1="115" x2="61.85" y2="151.711" gradientUnits="userSpaceOnUse">
<stop offset="0.0001" stop-color="white" stop-opacity="0.3"/>
<stop offset="0.0002" stop-color="white" stop-opacity="0"/>
<stop offset="1" stop-color="white" stop-opacity="0.31"/>
</linearGradient>
<linearGradient id="paint37_linear" x1="281.85" y1="215" x2="281.85" y2="241.653" gradientUnits="userSpaceOnUse">
<stop offset="0.0001" stop-color="white" stop-opacity="0.3"/>
<stop offset="0.0002" stop-color="white" stop-opacity="0"/>
<stop offset="1" stop-color="white" stop-opacity="0.31"/>
</linearGradient>
<linearGradient id="paint38_linear" x1="241.85" y1="235" x2="241.85" y2="261.653" gradientUnits="userSpaceOnUse">
<stop offset="0.0001" stop-color="white" stop-opacity="0.3"/>
<stop offset="0.0002" stop-color="white" stop-opacity="0"/>
<stop offset="1" stop-color="white" stop-opacity="0.31"/>
</linearGradient>
<linearGradient id="paint39_linear" x1="11.85" y1="175" x2="11.85" y2="191.595" gradientUnits="userSpaceOnUse">
<stop offset="0.0001" stop-color="white" stop-opacity="0.3"/>
<stop offset="0.0002" stop-color="white" stop-opacity="0"/>
<stop offset="1" stop-color="white" stop-opacity="0.31"/>
</linearGradient>
<linearGradient id="paint40_linear" x1="111.85" y1="254" x2="111.85" y2="290.711" gradientUnits="userSpaceOnUse">
<stop offset="0.0001" stop-color="white" stop-opacity="0.3"/>
<stop offset="0.0002" stop-color="white" stop-opacity="0"/>
<stop offset="1" stop-color="white" stop-opacity="0.31"/>
</linearGradient>
<linearGradient id="paint41_linear" x1="121.85" y1="245" x2="121.85" y2="261.595" gradientUnits="userSpaceOnUse">
<stop offset="0.0001" stop-color="white" stop-opacity="0.3"/>
<stop offset="0.0002" stop-color="white" stop-opacity="0"/>
<stop offset="1" stop-color="white" stop-opacity="0.31"/>
</linearGradient>
<linearGradient id="paint42_linear" x1="211.85" y1="205" x2="211.85" y2="233.665" gradientUnits="userSpaceOnUse">
<stop offset="0.0001" stop-color="white" stop-opacity="0.3"/>
<stop offset="0.0002" stop-color="white" stop-opacity="0"/>
<stop offset="1" stop-color="white" stop-opacity="0.31"/>
</linearGradient>
<linearGradient id="paint43_linear" x1="81.85" y1="125" x2="81.85" y2="143.607" gradientUnits="userSpaceOnUse">
<stop offset="0.0001" stop-color="white" stop-opacity="0.3"/>
<stop offset="0.0002" stop-color="white" stop-opacity="0"/>
<stop offset="1" stop-color="white" stop-opacity="0.31"/>
</linearGradient>
<linearGradient id="paint44_linear" x1="91.85" y1="145" x2="91.85" y2="163.607" gradientUnits="userSpaceOnUse">
<stop offset="0.0001" stop-color="white" stop-opacity="0.3"/>
<stop offset="0.0002" stop-color="white" stop-opacity="0"/>
<stop offset="1" stop-color="white" stop-opacity="0.31"/>
</linearGradient>
<linearGradient id="paint45_linear" x1="289.85" y1="237" x2="289.85" y2="246.555" gradientUnits="userSpaceOnUse">
<stop offset="0.0001" stop-color="white" stop-opacity="0.3"/>
<stop offset="0.0002" stop-color="white" stop-opacity="0"/>
<stop offset="1" stop-color="white" stop-opacity="0.31"/>
</linearGradient>
<linearGradient id="paint46_linear" x1="297.85" y1="214" x2="297.85" y2="243.671" gradientUnits="userSpaceOnUse">
<stop offset="0.0001" stop-color="white" stop-opacity="0.3"/>
<stop offset="0.0002" stop-color="white" stop-opacity="0"/>
<stop offset="1" stop-color="white" stop-opacity="0.31"/>
</linearGradient>
<linearGradient id="paint47_linear" x1="823.85" y1="159" x2="823.85" y2="195.711" gradientUnits="userSpaceOnUse">
<stop offset="0.0001" stop-color="white" stop-opacity="0.3"/>
<stop offset="0.0002" stop-color="white" stop-opacity="0"/>
<stop offset="1" stop-color="white" stop-opacity="0.31"/>
</linearGradient>
<linearGradient id="paint48_linear" x1="913.85" y1="159" x2="913.85" y2="185.653" gradientUnits="userSpaceOnUse">
<stop offset="0.0001" stop-color="white" stop-opacity="0.3"/>
<stop offset="0.0002" stop-color="white" stop-opacity="0"/>
<stop offset="1" stop-color="white" stop-opacity="0.31"/>
</linearGradient>
<linearGradient id="paint49_linear" x1="873.85" y1="179" x2="873.85" y2="205.653" gradientUnits="userSpaceOnUse">
<stop offset="0.0001" stop-color="white" stop-opacity="0.3"/>
<stop offset="0.0002" stop-color="white" stop-opacity="0"/>
<stop offset="1" stop-color="white" stop-opacity="0.31"/>
</linearGradient>
<linearGradient id="paint50_linear" x1="843.85" y1="169" x2="843.85" y2="207.723" gradientUnits="userSpaceOnUse">
<stop offset="0.0001" stop-color="white" stop-opacity="0.3"/>
<stop offset="0.0002" stop-color="white" stop-opacity="0"/>
<stop offset="1" stop-color="white" stop-opacity="0.31"/>
</linearGradient>
<linearGradient id="paint51_linear" x1="713.85" y1="69" x2="713.85" y2="77.5491" gradientUnits="userSpaceOnUse">
<stop offset="0.0001" stop-color="white" stop-opacity="0.3"/>
<stop offset="0.0002" stop-color="white" stop-opacity="0"/>
<stop offset="1" stop-color="white" stop-opacity="0.31"/>
</linearGradient>
<linearGradient id="paint52_linear" x1="723.85" y1="89" x2="723.85" y2="107.607" gradientUnits="userSpaceOnUse">
<stop offset="0.0001" stop-color="white" stop-opacity="0.3"/>
<stop offset="0.0002" stop-color="white" stop-opacity="0"/>
<stop offset="1" stop-color="white" stop-opacity="0.31"/>
</linearGradient>
<linearGradient id="paint53_linear" x1="923.85" y1="179" x2="923.85" y2="198.613" gradientUnits="userSpaceOnUse">
<stop offset="0.0001" stop-color="white" stop-opacity="0.3"/>
<stop offset="0.0002" stop-color="white" stop-opacity="0"/>
<stop offset="1" stop-color="white" stop-opacity="0.31"/>
</linearGradient>
<linearGradient id="paint54_linear" x1="929.85" y1="178" x2="929.85" y2="187.555" gradientUnits="userSpaceOnUse">
<stop offset="0.0001" stop-color="white" stop-opacity="0.3"/>
<stop offset="0.0002" stop-color="white" stop-opacity="0"/>
<stop offset="1" stop-color="white" stop-opacity="0.31"/>
</linearGradient>
<linearGradient id="paint55_linear" x1="923.85" y1="19" x2="923.85" y2="55.711" gradientUnits="userSpaceOnUse">
<stop offset="0.0001" stop-color="white" stop-opacity="0.3"/>
<stop offset="0.0002" stop-color="white" stop-opacity="0"/>
<stop offset="1" stop-color="white" stop-opacity="0.31"/>
</linearGradient>
<linearGradient id="paint56_linear" x1="943.85" y1="29" x2="943.85" y2="37.5491" gradientUnits="userSpaceOnUse">
<stop offset="0.0001" stop-color="white" stop-opacity="0.3"/>
<stop offset="0.0002" stop-color="white" stop-opacity="0"/>
<stop offset="1" stop-color="white" stop-opacity="0.31"/>
</linearGradient>
<linearGradient id="paint57_linear" x1="833.5" y1="176" x2="691" y2="298" gradientUnits="userSpaceOnUse">
<stop stop-color="white" stop-opacity="0.3"/>
<stop offset="1" stop-color="white" stop-opacity="0"/>
</linearGradient>
<linearGradient id="paint58_linear" x1="369.5" y1="-16" x2="358.64" y2="123.097" gradientUnits="userSpaceOnUse">
<stop stop-color="white" stop-opacity="0.3"/>
<stop offset="1" stop-color="white" stop-opacity="0"/>
</linearGradient>
<linearGradient id="paint59_linear" x1="38.5" y1="-29.5" x2="-106.18" y2="94.6795" gradientUnits="userSpaceOnUse">
<stop stop-color="white" stop-opacity="0.3"/>
<stop offset="1" stop-color="white" stop-opacity="0"/>
</linearGradient>
<linearGradient id="paint60_linear" x1="263" y1="102" x2="197.436" y2="142.707" gradientUnits="userSpaceOnUse">
<stop stop-color="white" stop-opacity="0.3"/>
<stop offset="1" stop-color="white" stop-opacity="0"/>
</linearGradient>
<linearGradient id="paint61_linear" x1="349" y1="223.5" x2="330.921" y2="323.697" gradientUnits="userSpaceOnUse">
<stop stop-color="white" stop-opacity="0.3"/>
<stop offset="1" stop-color="white" stop-opacity="0"/>
</linearGradient>
<linearGradient id="paint62_linear" x1="898.843" y1="159.716" x2="863.732" y2="181.516" gradientUnits="userSpaceOnUse">
<stop stop-color="white" stop-opacity="0.3"/>
<stop offset="1" stop-color="white" stop-opacity="0"/>
</linearGradient>
<linearGradient id="paint63_linear" x1="671.843" y1="167.716" x2="636.732" y2="189.516" gradientUnits="userSpaceOnUse">
<stop stop-color="white" stop-opacity="0.3"/>
<stop offset="1" stop-color="white" stop-opacity="0"/>
</linearGradient>
<linearGradient id="paint64_linear" x1="596" y1="-21" x2="543.572" y2="157.645" gradientUnits="userSpaceOnUse">
<stop stop-color="white" stop-opacity="0.3"/>
<stop offset="1" stop-color="white" stop-opacity="0"/>
</linearGradient>
<linearGradient id="paint65_linear" x1="861.5" y1="53.0422" x2="786.171" y2="164.359" gradientUnits="userSpaceOnUse">
<stop stop-color="white" stop-opacity="0.3"/>
<stop offset="1" stop-color="white" stop-opacity="0"/>
</linearGradient>
<linearGradient id="paint66_linear" x1="397.389" y1="21.1" x2="351.326" y2="52.0461" gradientUnits="userSpaceOnUse">
<stop stop-color="white" stop-opacity="0.3"/>
<stop offset="1" stop-color="white" stop-opacity="0"/>
</linearGradient>
<linearGradient id="paint67_linear" x1="204.657" y1="420.362" x2="229.704" y2="216.589" gradientUnits="userSpaceOnUse">
<stop offset="0.0489916" stop-color="white" stop-opacity="0.3"/>
<stop offset="1" stop-color="white" stop-opacity="0"/>
</linearGradient>
<clipPath id="clip0">
<path d="M0 16C0 7.16345 7.16344 0 16 0H932C940.837 0 948 7.16344 948 16V384C948 392.837 940.837 400 932 400H16C7.16346 400 0 392.837 0 384V16Z" fill="white"/>
</clipPath>
</defs>
</svg>